<?xml version="1.0" encoding="utf-8"?>
<!-- Generator: Adobe Illustrator 26.0.2, SVG Export Plug-In . SVG Version: 6.00 Build 0)  -->
<svg version="1.1" id="圖層_1" xmlns="http://www.w3.org/2000/svg" xmlns:xlink="http://www.w3.org/1999/xlink" x="0px" y="0px"
	 viewBox="0 0 1927 239" style="enable-background:new 0 0 1927 239;" xml:space="preserve">
<style type="text/css">
	.st0{fill:#FFFFFF;}
</style>
<g>
	<g>
		<g>
			<path class="st0" d="M1099.07,67.68l-24.63,24.63h-34.85V57.47l39.03-39.03h118.95l39.03,39.03v45.07l-39.03,39.03h-98.51
				l-10.22,10.22v14.41h147.76v49.26h-197.02v-84.1l39.03-39.03h98.51L1189.45,80l-12.31-12.31H1099.07z"/>
			<path class="st0" d="M1261.24,69.78l51.35-51.35h94.32l51.35,51.35v94.32l-51.35,51.35h-94.32l-51.35-51.35V69.78z
				 M1333.02,67.68l-22.53,22.53v53.44l22.53,22.53h53.44l22.53-22.53V90.22l-22.53-22.53H1333.02z"/>
			<path class="st0" d="M1542.35,67.68l-24.63,24.63h-34.85V57.47l39.03-39.03h118.95l39.03,39.03v45.07l-39.03,39.03h-98.51
				l-10.22,10.22v14.41h147.76v49.26h-197.02v-84.1l39.03-39.03h98.51L1632.74,80l-12.31-12.31H1542.35z"/>
			<path class="st0" d="M1763.99,67.68l-24.63,24.63h-34.85V57.47l39.03-39.03h118.95l39.03,39.03v45.07l-14.41,14.41l14.41,14.41
				v45.07l-39.03,39.03h-118.95l-39.03-39.03v-34.85h34.85l24.63,24.63h78.07l12.31-12.31l-12.31-12.31h-88.29V92.31h88.29
				L1854.38,80l-12.31-12.31H1763.99z"/>
		</g>
	</g>
	<g>
		<path class="st0" d="M70.23,216.99H20.25V67.03h49.99V216.99z"/>
		<path class="st0" d="M70.23,51.57H20.25V17.04h49.99V51.57z"/>
		<path class="st0" d="M243.07,17.04l52.11,52.11v35.37h-35.37l-37.49-37.49h-54.24L145.22,89.9v54.23l22.87,22.87h54.24
			l37.49-37.49h35.37v35.37l-52.11,52.11h-95.73l-52.11-52.11V69.16l52.11-52.11H243.07z"/>
		<path class="st0" d="M320.18,69.16l52.11-52.11h95.73l52.11,52.11v147.84h-49.99v-49.99h-99.98v49.99h-49.99V69.16z M393.03,67.03
			L370.16,89.9v27.12h99.98V89.9l-22.87-22.87H393.03z"/>
		<path class="st0" d="M938.73,17.04l22.51,49.99h-74.98v149.97h-49.99V67.03h-74.98l22.51-49.99H938.73z"/>
		<path class="st0" d="M706.81,17.04l39.62,39.62v35.37h-35.37l-24.99-25h-79.23l-12.5,12.5l12.5,12.5h99.98l39.62,39.62v45.74
			l-39.62,39.62H586.09l-39.62-39.62v-35.37h35.37l24.99,25h79.23l12.5-12.5l-12.5-12.5h-99.98l-39.62-39.61V56.66l39.62-39.62
			H706.81z"/>
	</g>
</g>
</svg>
