<?xml version="1.0" encoding="UTF-8" standalone="no"?>
<svg
   version="1.0"
   width="319"
   height="319"
   viewBox="0 0 239.25 239.25"
   preserveAspectRatio="xMidYMid meet"
   id="svg321"
   sodipodi:docname="2.svg"
   inkscape:version="1.1 (c68e22c387, 2021-05-23)"
   xmlns:inkscape="http://www.inkscape.org/namespaces/inkscape"
   xmlns:sodipodi="http://sodipodi.sourceforge.net/DTD/sodipodi-0.dtd"
   xmlns="http://www.w3.org/2000/svg"
   xmlns:svg="http://www.w3.org/2000/svg">
  <defs
     id="defs325" />
  <sodipodi:namedview
     id="namedview323"
     pagecolor="#ffffff"
     bordercolor="#666666"
     borderopacity="1.0"
     inkscape:pageshadow="2"
     inkscape:pageopacity="0.0"
     inkscape:pagecheckerboard="0"
     inkscape:document-units="px"
     showgrid="false"
     units="px"
     inkscape:showpageshadow="false"
     inkscape:zoom="1.5219183"
     inkscape:cx="169.85143"
     inkscape:cy="162.62371"
     inkscape:window-width="1366"
     inkscape:window-height="705"
     inkscape:window-x="-8"
     inkscape:window-y="-8"
     inkscape:window-maximized="1"
     inkscape:current-layer="g319" />
  <metadata
     id="metadata229">
Created by potrace 1.10, written by Peter Selinger 2001-2011
</metadata>
  <g
     transform="matrix(0.1,0,0,-0.1,0,1248)"
     fill="#000080"
     stroke="none"
     id="g319">
    <path
       d="m 1134.5359,12466.271 c -10.4845,-0.785 -33.5509,-2.551 -51.4702,-3.73 -17.7286,-0.982 -37.5542,-3.337 -43.8451,-4.908 -6.2908,-1.57 -17.9192,-3.73 -25.735,-4.908 -7.8159,-1.179 -18.49125,-3.536 -23.82891,-5.105 -5.14709,-1.768 -17.15681,-3.731 -26.68828,-4.712 -9.3409,-0.981 -22.30368,-3.535 -28.40405,-5.89 -6.29072,-2.16 -13.53471,-3.928 -16.20354,-3.928 -2.66883,0 -12.2003,-2.748 -21.16007,-5.889 -8.95953,-3.142 -17.91929,-5.891 -20.0162,-5.891 -2.09691,-0.195 -14.86913,-4.122 -28.59462,-9.03 -13.53471,-4.713 -36.21975,-12.566 -50.32638,-17.475 -13.91606,-4.712 -26.49772,-9.62 -27.64157,-10.602 -1.90611,-1.571 -31.64457,-13.94 -40.22298,-16.69 -4.00325,-1.176 -44.22623,-21.793 -88.64326,-45.549 -14.10663,-7.656 -32.979,-18.652 -41.93854,-24.541 -8.95976,-6.087 -28.21348,-18.26 -42.89204,-27.291 -34.69477,-21.009 -43.8451,-27.487 -64.43301,-43.587 -9.34091,-7.266 -17.72874,-13.351 -18.68202,-13.351 -1.71555,0 -23.06618,-18.063 -41.55741,-35.34 -6.86264,-6.479 -23.06617,-21.598 -36.02918,-33.377 -25.54444,-23.757 -52.99543,-51.833 -90.35903,-92.476 -26.11636,-28.469 -35.64782,-40.444 -53.18577,-67.538 -6.29093,-9.621 -14.67856,-21.205 -18.6818,-25.525 -12.39108,-13.94 -56.80788,-86.191 -64.24268,-104.45 -1.52497,-3.731 -6.29062,-11.977 -10.48442,-18.26 -8.76898,-13.35 -18.87237,-32.2 -32.40731,-60.864 -16.96602,-35.537 -18.68179,-39.857 -24.40058,-56.937 -3.050187,-9.228 -9.531689,-27.684 -14.106855,-41.232 -4.765733,-13.546 -10.293957,-29.841 -12.390861,-36.32 -2.096904,-6.48 -6.100147,-17.867 -8.768975,-25.525 -7.053428,-19.241 -16.01297,-51.244 -21.16006,-75.589 -2.28747,-11.387 -5.14709,-24.149 -6.290713,-28.469 -1.143847,-4.319 -3.050185,-16.1 -4.194033,-26.309 -1.143624,-10.014 -3.431318,-21.008 -4.956299,-24.149 -1.715771,-3.534 -3.622109,-16.101 -4.765733,-33.574 -0.953281,-15.314 -3.240752,-34.948 -4.765956,-43.587 -6.099924,-32.199 -6.67207,-179.254 -0.762491,-213.025 0.953281,-5.89 2.668828,-21.4 3.812676,-34.359 1.143848,-12.958 4.193809,-34.162 6.672071,-47.12 2.478261,-12.959 5.147089,-29.254 5.90958,-36.322 0.571923,-7.069 2.859395,-17.671 4.765732,-23.561 1.906338,-5.891 4.3846,-16.688 5.528223,-23.756 0.953281,-7.265 3.240753,-16.69 4.765734,-21.205 1.525203,-4.32 3.622109,-13.547 4.765956,-20.42 2.478038,-13.938 9.912822,-38.678 16.394102,-54.581 2.478262,-6.085 4.575167,-12.564 4.575167,-14.527 0,-3.143 9.340898,-27.489 13.725498,-35.342 1.143623,-2.16 3.621885,-8.834 5.528225,-14.725 5.528222,-17.67 12.009722,-33.966 16.584892,-41.23 2.28747,-3.731 4.19381,-8.836 4.19381,-11.192 0,-4.123 35.07612,-77.159 45.37008,-94.436 9.53138,-16.1 48.61074,-75.984 54.71089,-83.837 3.24076,-4.32 7.62536,-10.601 9.72226,-14.137 4.57516,-7.853 27.45077,-40.445 40.98548,-58.311 17.53817,-23.168 32.21651,-40.643 54.52042,-64.596 11.81915,-12.565 21.54119,-23.756 21.54119,-24.541 0,-0.785 9.15033,-9.424 20.39757,-19.045 11.05666,-9.816 27.26021,-24.149 35.64782,-32.002 8.57841,-7.854 24.97273,-21.793 36.41054,-31.022 11.6286,-9.031 29.92903,-23.559 40.98548,-32.198 17.72874,-13.941 37.93552,-28.47 59.09558,-42.213 3.62189,-2.355 16.58489,-10.994 28.59462,-19.045 24.59138,-16.295 33.93228,-21.99 62.90802,-37.696 44.22647,-24.148 55.09234,-29.058 122.9569,-54.974 6.29071,-2.553 14.10663,-5.694 17.15659,-7.461 8.95977,-4.516 82.35254,-28.272 104.84679,-33.573 6.29094,-1.571 22.68527,-6.088 36.21998,-10.21 33.93227,-10.013 107.13445,-21.99 178.04905,-29.45 48.6108,-4.909 176.9051,-3.338 212.7437,2.747 6.2907,1.179 21.7318,2.946 34.3134,4.125 37.3638,3.336 102.9404,15.117 118.1912,21.204 5.3376,2.16 16.3941,5.301 24.7817,7.068 20.3976,4.516 62.9084,15.902 80.0651,21.793 12.2003,4.124 32.9792,11.977 47.6575,18.063 6.291,2.748 26.498,10.406 44.7984,17.081 50.517,18.652 105.4185,44.373 131.535,61.65 5.7191,3.73 19.0628,12.172 29.548,18.652 18.1098,11.192 26.8786,17.276 61.1923,42.211 8.3878,6.087 19.635,14.138 24.7821,17.868 15.8221,11.387 51.0889,41.034 84.8303,70.877 17.5383,15.708 36.0294,31.61 40.9857,35.341 9.3408,7.067 61.9548,63.023 67.4833,71.662 1.7155,2.75 9.9127,12.565 18.3004,22.186 8.3878,9.424 18.1101,21.401 21.732,26.898 3.6221,5.301 12.3909,17.278 19.2537,26.507 6.8629,9.226 15.8222,21.988 19.8256,28.467 4.0033,6.48 14.4878,21.795 23.4474,33.967 8.9597,12.172 20.7788,30.825 26.307,41.231 5.5285,10.406 12.0097,21.597 14.2972,24.738 2.4782,3.141 9.7222,16.688 16.204,30.039 6.481,13.351 12.772,25.329 13.725,26.702 0.9533,1.374 2.8597,5.89 4.1943,10.208 1.334,4.32 6.0997,15.905 10.6751,25.721 4.5752,9.818 8.3876,18.457 8.3876,19.046 0,0.785 2.0971,5.889 4.5752,11.584 2.4783,5.693 7.6251,18.847 11.4378,29.057 3.8129,10.209 8.1973,21.4 9.913,24.543 4.003,7.656 11.247,28.862 16.966,50.065 2.4781,9.228 8.3876,30.824 13.344,48.102 4.7659,17.277 9.5317,36.715 10.4849,43.193 2.2873,15.315 8.3876,44.962 12.0098,58.313 1.5247,5.694 3.4313,21.401 4.1938,34.948 0.7624,13.547 2.478,29.449 4.0032,35.34 4.003,16.295 7.8159,118.391 6.2908,170.812 -0.7626,24.347 -2.6687,55.17 -4.3844,68.719 -1.7158,13.547 -4.7658,39.66 -6.8629,57.918 -1.9064,18.456 -4.3844,35.93 -5.5282,39.071 -1.3345,3.143 -3.0502,12.369 -4.1938,20.616 -1.1439,8.246 -3.241,17.867 -4.766,21.4 -1.3342,3.535 -5.3377,17.278 -8.5782,30.432 -5.5282,22.186 -9.1501,36.323 -15.8224,61.258 -4.9563,18.455 -17.3472,53.992 -25.1633,72.644 -3.2406,7.461 -9.722,24.345 -15.0596,39.267 -8.388,22.972 -14.8694,37.501 -21.1604,47.514 -3.6217,5.694 -7.6248,13.547 -9.1501,17.277 -1.5249,3.731 -12.2003,23.757 -23.8289,44.569 -51.2793,92.081 -89.9773,148.234 -134.7757,195.354 -12.3909,12.959 -32.5979,34.752 -44.6076,48.103 -21.9223,24.149 -84.8305,84.03 -101.0341,96.009 -4.7657,3.533 -18.4913,14.92 -30.501,25.326 -21.7317,18.85 -46.3231,36.715 -62.908,45.354 -4.7657,2.355 -17.1568,10.014 -27.6413,16.492 -19.6351,12.565 -53.5674,32.396 -55.2831,32.396 -0.3814,0 -6.2908,3.339 -12.9627,7.658 -25.1632,15.904 -60.6207,33.769 -91.8841,46.139 -17.7285,7.264 -36.2196,14.724 -40.9853,16.687 -32.7889,13.744 -46.1328,18.653 -79.112,29.255 -44.0357,13.94 -90.1682,25.916 -99.8903,25.916 -3.0501,0 -12.0097,1.767 -20.3976,3.927 -28.9759,7.854 -66.3393,13.94 -102.5593,16.885 -20.0162,1.57 -44.9887,3.73 -55.4734,4.711 -22.6851,2.16 -113.9971,1.965 -141.0668,-0.196 z m 126.7693,-56.742 c 44.0357,0.198 104.8471,-6.084 140.1137,-14.332 33.3604,-7.853 65.9581,-14.725 75.2992,-16.098 4.7657,-0.787 15.0596,-3.338 22.8755,-5.89 7.8157,-2.553 17.3475,-5.303 20.9694,-5.891 15.6315,-3.143 102.3685,-34.947 136.3008,-50.065 9.5316,-4.32 21.7321,-9.424 27.2604,-11.779 13.9158,-5.498 25.1631,-11.586 31.2632,-16.69 5.7191,-4.908 36.9824,-20.812 48.2297,-24.543 16.5847,-5.498 51.2794,-25.326 81.9712,-46.727 34.6947,-24.543 55.092,-40.641 83.4959,-65.97 9.532,-8.442 21.732,-18.652 26.8793,-22.775 14.1064,-10.797 108.8501,-108.377 121.0504,-124.673 5.719,-7.461 15.0596,-18.849 20.5879,-24.935 5.5284,-6.086 10.1033,-11.977 10.1033,-13.155 0,-1.177 5.3377,-8.638 12.0098,-16.492 13.3443,-15.707 54.3298,-78.731 69.9614,-107.395 5.5284,-10.21 14.1068,-25.721 19.0631,-34.358 10.6753,-18.457 27.4507,-52.619 36.6009,-74.61 3.6224,-8.639 8.96,-21.008 11.6286,-27.486 2.669,-6.479 7.6253,-20.027 10.6755,-30.04 3.2408,-10.013 6.8624,-20.223 8.197,-22.578 2.8597,-5.498 10.4846,-31.808 14.2975,-49.477 1.5247,-7.461 4.1938,-16.297 5.9096,-19.633 3.2405,-6.676 8.5781,-26.114 12.9625,-48.104 1.5253,-8.049 4.9567,-23.951 7.4348,-35.34 8.1973,-37.107 13.3441,-74.606 16.0128,-115.839 1.1438,-16.687 3.0504,-41.426 4.1942,-54.973 1.1434,-13.546 1.7153,-34.947 0.9528,-48.104 -3.2405,-62.041 -7.6251,-123.297 -10.6752,-145.288 -5.3378,-39.266 -9.7221,-66.558 -11.2473,-69.307 -0.7625,-1.963 -2.4781,-9.032 -3.8125,-16.098 -3.4315,-20.027 -9.7219,-46.729 -14.6788,-62.829 -2.478,-8.245 -5.9095,-20.615 -7.4342,-27.486 -2.4783,-12.173 -9.5318,-34.555 -13.9162,-45.157 -1.1438,-2.75 -4.3845,-10.996 -7.2442,-18.652 -5.3376,-14.922 -18.4907,-46.139 -22.6848,-53.993 -1.3341,-2.748 -4.1938,-9.425 -6.2909,-14.726 -10.2939,-26.897 -18.1096,-45.55 -20.9693,-50.065 -1.5252,-2.748 -6.672,-11.977 -11.0567,-20.615 -4.3844,-8.639 -10.8657,-20.224 -14.2973,-25.72 -3.6219,-5.498 -8.7687,-14.333 -11.6284,-19.634 -2.8594,-5.301 -7.6251,-13.548 -10.4844,-18.455 -3.05,-4.909 -7.0535,-11.78 -9.1504,-15.511 -4.575,-7.855 -14.6785,-21.598 -30.501,-41.624 -6.2907,-7.853 -12.7722,-16.296 -14.2972,-18.652 -19.635,-29.254 -81.3993,-102.683 -111.7094,-132.331 -7.0535,-7.068 -17.1568,-17.277 -22.4944,-22.578 -10.1035,-10.209 -22.3038,-20.812 -37.7453,-32.395 -24.7817,-18.848 -43.2729,-33.377 -54.7107,-43.195 -12.7722,-10.994 -60.8114,-44.372 -88.8341,-61.845 -8.3874,-5.301 -18.3004,-11.978 -21.9223,-14.922 -8.197,-6.676 -41.367,-26.31 -54.3296,-32.2 -5.1473,-2.552 -18.4912,-9.03 -29.5477,-14.724 -33.5514,-17.082 -76.0616,-35.34 -118.1911,-50.852 -16.3944,-6.086 -53.758,-15.706 -76.2524,-19.633 -6.8625,-1.179 -21.3506,-4.712 -32.4071,-7.853 -37.5544,-10.602 -40.9857,-11.389 -56.236,-14.727 -29.1665,-6.086 -89.7871,-14.725 -118.1911,-16.885 -44.7982,-3.533 -146.5948,-4.711 -180.1459,-2.159 -90.9307,6.872 -125.05358,12.958 -264.02344,47.317 -12.58164,3.141 -26.30692,6.282 -30.50073,7.069 -8.7692,1.57 -29.16655,9.229 -52.4235,19.436 -8.95977,3.928 -20.96928,9.229 -26.68829,11.586 -22.30368,9.619 -59.28615,27.289 -67.10207,32.395 -4.57494,2.945 -13.34413,7.853 -19.63485,10.798 -11.62837,5.497 -20.20678,10.407 -61.95497,36.323 -35.26669,21.793 -79.68372,54.383 -148.6919,109.161 -27.83213,21.991 -73.2022,67.54 -104.84678,105.04 -8.76898,10.211 -16.39433,19.047 -17.15682,19.634 -2.28747,1.767 -39.65107,50.458 -43.27318,56.349 -4.9563,7.853 -20.58813,29.843 -34.12284,47.317 -6.29093,8.246 -13.15357,17.867 -15.05991,21.008 -1.90611,3.337 -7.24377,11.584 -11.62837,18.653 -4.3846,7.067 -14.10664,25.131 -21.73198,40.248 -7.62514,15.119 -18.68181,36.715 -24.4006,48.102 -11.62828,23.168 -20.01612,42.803 -25.16321,58.901 -3.43132,10.799 -11.24724,29.843 -16.20354,39.267 -8.76919,16.886 -23.44752,65.774 -35.266688,117.802 -1.715771,8.049 -5.14709,20.812 -7.434561,28.274 -2.097129,7.264 -4.003243,17.474 -4.003243,22.381 0,5.104 -1.715771,16.1 -3.622109,24.935 -9.722032,42.212 -15.059689,87.565 -17.156593,147.252 -3.050185,87.959 3.621886,194.765 14.869122,241.298 1.906338,7.656 4.003242,18.455 4.765733,23.756 4.003242,32.004 27.641569,116.624 46.704489,166.887 3.05019,7.656 8.00649,21.204 11.43781,30.432 3.43131,9.227 7.81591,20.615 9.72226,25.523 2.0969,4.908 4.57516,12.761 5.90935,17.67 1.14385,4.909 2.85962,9.816 3.62211,10.799 0.76249,1.177 7.24391,13.94 14.29711,28.469 7.244,14.529 14.86934,29.254 17.15682,32.395 2.2877,3.338 11.43781,18.26 20.01622,33.377 8.76897,15.119 17.34737,29.646 19.06315,32.395 1.90633,2.749 5.33766,9.032 7.62513,13.744 9.72225,19.438 48.03891,76.375 61.19248,90.315 7.43456,8.049 17.15682,20.025 21.35063,26.506 15.44104,23.559 143.92616,149.804 158.79527,156.086 2.2877,0.983 9.53169,6.479 16.01297,12.566 6.48151,5.891 19.4443,16.296 28.97598,23.168 9.3409,6.871 30.50074,22.185 46.89507,33.965 38.31664,27.684 51.47023,35.734 79.49292,48.889 12.58165,5.693 35.26669,16.689 50.51717,24.149 45.37007,22.382 85.59307,40.052 103.89374,45.748 6.29071,1.962 19.63484,6.674 29.54767,10.404 47.65755,18.063 113.99712,36.322 147.1669,40.641 8.95955,1.178 20.01627,3.338 24.59137,4.909 4.3844,1.57 17.9191,4.32 30.1196,5.693 12.2003,1.571 26.4975,3.928 31.6446,5.301 16.2038,3.928 39.6513,5.106 102.9407,4.32 33.5509,-0.392 74.3458,-0.59 90.5493,-0.59 z"
       id="path231"
       style="stroke-width:0.193463" />
    <path
       d="m 1224.1324,12401.677 c -34.123,-9.227 -50.136,-18.847 -58.5236,-35.145 -5.5283,-10.994 -6.8627,-24.738 -3.8127,-39.462 2.2877,-10.799 0.9533,-13.352 -7.8159,-15.708 -11.6284,-2.946 -13.7252,-4.515 -14.2973,-11.191 -0.7624,-8.638 7.6252,-15.315 21.5413,-17.278 7.8159,-0.98 11.2472,-2.356 13.3441,-5.497 1.9063,-3.339 3.0502,-18.653 4.1938,-67.146 l 1.7158,-62.828 5.3377,-11.389 c 6.1001,-13.154 12.7722,-17.866 17.7287,-12.565 2.6689,2.749 3.05,9.227 2.8594,49.87 -0.1899,25.721 -0.953,58.705 -1.525,73.627 -1.3344,26.7 -1.3344,26.7 3.4313,31.61 3.2408,3.338 8.0065,5.497 14.1067,6.479 15.2504,2.355 82.5431,-5.694 92.0745,-10.997 7.0535,-3.925 1.5253,-7.263 -22.1131,-13.742 -21.9226,-5.89 -38.3169,-13.155 -45.7514,-20.223 -5.9094,-5.497 -5.5283,-14.334 0.7627,-26.898 7.0532,-13.94 12.5814,-19.241 29.7382,-28.076 18.6819,-9.817 35.4573,-27.683 45.942,-49.085 4.1938,-8.442 10.1035,-17.473 13.3442,-20.418 l 5.719,-4.909 3.2406,4.123 c 2.097,2.749 3.8129,9.621 4.5753,19.438 0.7623,8.246 2.478,21.4 3.8125,28.861 1.5252,7.657 3.6219,23.561 4.7657,35.341 4.7657,48.691 8.9598,66.949 15.8222,69.503 2.2876,0.784 11.0566,0.982 19.4445,0.392 13.1536,-0.981 16.9661,-2.16 26.3069,-8.049 15.6319,-9.62 16.3946,-15.315 3.2408,-24.346 -8.3878,-5.693 -12.3909,-12.173 -14.1067,-23.756 -2.6688,-16.69 7.244,-26.506 26.6886,-26.506 18.3004,0 25.9255,-8.442 13.725,-14.922 -9.3407,-4.908 -14.8689,-10.799 -14.8689,-15.902 0,-8.051 10.4845,-23.954 21.9223,-33.575 11.8192,-9.817 22.4945,-24.541 32.217,-44.176 10.2939,-21.006 16.3941,-20.223 24.2098,2.75 2.6688,8.049 10.2941,28.076 16.7755,44.568 l 11.8189,30.038 0.3813,22.973 c 0.3812,21.205 0.9533,23.756 6.2907,34.752 l 5.7191,11.78 13.9162,0.589 13.725,0.589 9.1507,-9.425 c 4.9563,-5.105 11.4378,-10.994 14.2969,-12.957 3.0504,-2.16 4.9567,-5.303 4.9567,-8.443 0,-5.105 -7.0533,-22.579 -18.3004,-44.372 -3.6223,-7.068 -8.1972,-17.671 -10.1039,-23.561 -1.906,-5.693 -8.0061,-20.027 -13.5344,-31.806 -9.5317,-20.418 -9.9126,-21.794 -9.1505,-34.751 0.5719,-10.799 1.5251,-14.529 4.9567,-17.866 l 4.1938,-4.319 4.5751,4.711 c 4.0031,4.32 15.8222,30.236 26.3068,57.919 2.0971,5.497 4.9567,11.19 6.4814,12.958 1.3348,1.57 4.1943,7.854 6.291,13.94 1.9063,5.89 4.3844,12.369 5.5282,14.527 1.1438,1.965 5.1471,10.997 9.1506,19.831 9.5313,21.794 10.294,22.383 28.2132,21.598 14.2971,-0.786 14.869,-0.981 22.6851,-8.836 4.3844,-4.318 12.7722,-10.602 18.4912,-13.742 19.0627,-10.211 44.7982,-26.114 49.1825,-30.433 10.1032,-9.621 1.5251,-13.155 -21.1598,-8.443 -8.5786,1.57 -26.6885,3.141 -40.2232,3.338 l -24.782,0.392 -4.5751,-5.693 c -4.3844,-5.104 -4.575,-6.675 -3.6221,-21.401 0.9531,-17.867 2.2877,-21.597 12.7722,-34.359 3.8129,-4.909 10.1039,-15.903 13.7255,-24.542 5.719,-13.351 6.8629,-18.847 8.0063,-36.125 0.7627,-11.388 2.2876,-22.187 3.241,-24.15 4.7657,-9.031 14.4877,-1.178 25.5446,20.419 3.6219,7.069 12.5814,21.009 19.8255,30.628 12.7722,16.885 20.207,28.469 35.6479,54.78 8.7689,15.313 14.6784,18.455 25.5443,13.349 7.8159,-3.533 14.1068,-10.602 19.8256,-22.186 3.05,-6.282 3.05,-6.871 -0.5717,-14.724 -2.2874,-4.714 -13.1538,-17.672 -25.1635,-29.844 -11.8187,-11.977 -22.4942,-24.346 -23.8285,-27.879 -4.0034,-9.817 -3.4314,-34.36 0.7622,-39.858 l 3.4316,-4.515 16.2036,6.48 c 18.8726,7.461 37.745,10.012 41.3668,5.301 2.0972,-2.553 0.572,-5.301 -9.5314,-18.455 -15.4413,-19.635 -19.4446,-26.9 -24.2101,-43.391 -4.7657,-16.297 -4.9565,-22.579 -0.9532,-26.112 3.6219,-3.142 8.3874,-0.59 11.2472,5.888 12.5817,28.862 17.538,36.715 30.1196,47.711 7.2438,6.085 20.7787,15.314 30.1198,20.223 10.8659,5.693 17.9189,10.798 19.2535,13.741 3.4316,8.051 0.1899,21.991 -7.2442,30.434 -8.0063,9.031 -16.3941,11.387 -41.3664,11.387 -16.9662,0 -22.3041,1.963 -22.3041,7.658 0,4.712 24.9727,28.076 29.929,28.076 5.9097,0 45.3701,-26.899 61.7646,-42.016 4.7658,-4.517 13.3437,-12.173 19.0628,-17.082 12.0097,-10.799 22.685,-29.646 19.4445,-34.949 -1.9064,-3.139 -3.6219,-4.122 -29.7385,-16.688 -16.3941,-7.853 -30.1198,-19.828 -41.1763,-35.733 -16.7754,-24.345 -22.1131,-30.628 -30.5009,-35.732 -8.0063,-4.909 -10.294,-5.303 -26.307,-4.909 -17.7287,0.393 -17.7287,0.393 -17.7287,-4.32 0,-6.479 11.2473,-13.94 24.4008,-16.687 11.8192,-2.161 24.4008,0 34.5042,6.086 14.2972,8.639 34.6948,28.468 47.6578,45.943 7.6249,10.208 18.8722,23.167 25.3536,28.86 10.8659,9.621 12.2003,10.211 23.6384,10.994 14.6786,0.983 20.3975,-1.962 23.6381,-12.564 2.8596,-9.032 1.3346,-24.935 -3.2406,-32.199 -3.6221,-5.497 -26.6884,-26.31 -55.6645,-49.673 -30.1196,-24.543 -40.2229,-37.108 -37.3633,-46.729 1.7156,-5.496 7.2437,-4.515 16.0129,2.946 4.3844,3.73 12.7725,9.621 18.8727,13.154 5.9095,3.533 16.966,11.781 24.2102,18.455 7.4341,6.48 20.2066,17.082 28.4038,23.561 8.1969,6.48 18.8721,15.117 23.6379,19.24 10.2944,8.444 17.1571,9.229 25.3541,3.143 7.4346,-5.498 13.916,-3.731 16.7755,4.32 1.7157,4.907 1.3343,7.461 -1.9062,14.135 -4.0035,7.853 -4.0035,11.781 -0.5719,27.487 1.5248,6.872 -1.3344,6.872 -13.5349,0.197 -12.5817,-6.872 -16.5849,-5.891 -19.8257,5.104 -4.9565,17.279 -10.2941,25.328 -32.7884,50.263 -12.5816,13.939 -24.9727,28.664 -27.6414,32.591 -4.5751,7.265 -7.2439,9.621 -37.1732,32.592 -16.0128,12.37 -24.9723,19.634 -50.1356,41.625 -9.1501,8.048 -20.7787,17.865 -25.7354,21.793 -4.9564,3.926 -11.2473,10.405 -14.1065,14.33 -2.8595,3.731 -11.0563,10.603 -18.1098,14.924 -7.0534,4.515 -17.7288,11.387 -23.6383,15.312 -13.7253,9.229 -32.979,21.598 -61.5736,39.661 -19.2538,12.369 -24.0195,14.53 -31.6449,14.725 -7.8157,0.197 -10.2939,1.374 -19.6348,9.621 -8.3879,7.264 -10.6751,10.602 -10.6751,14.922 0,7.264 10.2939,21.203 20.016,27.094 6.8628,4.123 9.3407,4.515 23.8289,3.73 10.2939,-0.589 20.5879,-2.553 28.0226,-5.498 16.2036,-6.085 34.8854,-20.615 44.2261,-34.555 4.1942,-6.283 10.2944,-14.332 13.3443,-18.063 5.1469,-6.085 5.9096,-6.282 7.0535,-3.142 1.9064,4.91 -1.9066,22.776 -7.4348,34.95 -5.5282,12.368 -19.2535,27.093 -34.6948,37.695 -13.9159,9.425 -37.9352,16.297 -62.9081,18.065 -16.966,0.98 -17.5379,0.98 -28.2131,-5.301 -13.9164,-8.051 -23.6384,-19.635 -27.2603,-32.593 -1.5249,-5.694 -4.0034,-10.799 -5.5282,-11.388 -1.5252,-0.59 -8.5787,-0.59 -15.6318,0.197 -9.7221,0.784 -13.9159,2.159 -16.9662,5.301 -2.2873,2.159 -9.3408,7.461 -15.6317,11.387 -9.5313,6.086 -11.8189,8.639 -14.1069,15.707 -4.5749,13.743 -9.9125,12.37 -18.6813,-4.712 -3.241,-6.087 -4.9565,-7.46 -9.532,-7.46 -3.0496,0 -8.3876,1.767 -11.819,3.926 -8.3874,5.301 -26.1162,5.301 -37.5541,0 -11.8191,-5.694 -14.6787,-5.105 -25.9259,5.497 -5.3377,5.104 -14.869,12.173 -20.7785,15.904 -9.5314,5.89 -12.5816,6.676 -22.3036,6.479 -8.1973,-0.197 -12.7726,0.784 -17.7288,3.73 -3.6219,2.16 -14.6783,5.301 -24.2103,6.871 -9.722,1.572 -18.3006,3.34 -18.8723,3.731 -0.5717,0.392 -18.6818,2.552 -40.223,4.907 -21.3506,2.161 -44.989,4.909 -52.4235,6.088 -11.819,1.963 -14.8692,1.767 -22.4942,-1.179 -12.7726,-5.104 -27.0697,-3.336 -33.1699,4.123 -9.7222,11.586 -1.525,37.305 14.8691,45.944 12.7722,6.676 33.3604,10.209 50.8983,8.834 12.9631,-1.176 18.4913,-2.748 30.501,-8.834 8.1971,-4.32 18.3006,-10.21 22.4944,-13.547 9.9129,-7.461 15.8222,-9.229 17.3475,-5.301 2.2874,5.891 -1.3345,12.957 -12.2003,24.541 -12.5816,13.154 -29.7385,22.971 -56.0454,31.807 -19.8257,6.676 -22.6851,6.676 -40.6044,1.767 z m 284.0394,-167.671 c 5.7191,-5.89 7.4348,-15.511 6.1004,-33.182 -1.3346,-15.902 -5.5284,-23.559 -13.5349,-24.543 -6.6719,-0.783 -8.0062,3.536 -5.3377,16.887 1.9064,9.229 1.7158,11.976 -1.5247,21.596 -2.0972,6.088 -3.8129,12.958 -3.8129,15.119 0,9.424 10.485,11.78 18.1098,4.123 z m -176.3332,-5.105 c 4.7658,-4.908 4.7658,-6.676 0,-29.45 -5.3376,-27.095 -6.4812,-27.489 -23.2569,-9.031 -14.488,16.1 -17.3475,20.811 -15.4411,25.72 1.1438,3.139 11.6286,9.423 23.257,13.743 9.3409,3.731 11.0564,3.534 15.441,-0.982 z m 169.2798,-95.812 c 0.7627,-7.068 -2.0967,-12.173 -6.8624,-12.173 -3.6221,0 -13.7255,9.621 -13.7255,12.958 0,3.927 6.1004,6.676 13.3444,6.087 6.1001,-0.393 6.6721,-0.982 7.2435,-6.872 z m 225.8976,-48.496 c 7.0532,-2.944 5.9093,-9.816 -4.0033,-25.916 -14.2973,-22.971 -16.0129,-24.934 -20.9692,-23.364 -2.4785,0.786 -4.5754,3.534 -5.3376,6.677 -0.572,2.944 -2.8597,11.386 -4.7661,18.847 -4.3846,15.119 -3.6218,21.989 2.6689,24.738 4.3846,1.964 26.4978,1.178 32.4073,-0.982 z"
       id="path233"
       style="stroke-width:0.193463" />
    <path
       d="m 1024.9233,12294.477 c -4.7657,-1.374 -16.2035,-4.122 -25.73518,-5.693 -9.34086,-1.768 -20.20675,-3.928 -23.82862,-4.908 -3.62211,-0.983 -18.30067,-4.516 -32.40731,-7.854 -38.12608,-8.836 -41.36683,-10.013 -45.17951,-14.137 -3.24075,-3.729 -3.24075,-4.123 1.90635,-8.639 7.81591,-6.87 15.63183,-7.46 32.78842,-2.748 12.77244,3.339 42.70125,7.854 56.99867,8.64 10.29391,0.589 3.24076,-9.032 -16.96624,-23.366 -13.15336,-9.227 -34.88534,-31.412 -37.3636,-38.089 -3.24076,-8.442 -0.1899,-15.509 10.29417,-24.148 12.39087,-10.015 23.06618,-15.119 31.83538,-15.316 20.96926,0 47.84807,-13.938 69.96127,-35.733 13.916,-13.742 18.3006,-15.51 22.113,-9.031 2.4783,3.928 0.1899,17.279 -10.6752,60.472 -4.003,16.689 -9.1502,38.678 -11.0565,48.493 -1.9064,10.016 -4.9563,22.973 -6.6721,28.863 -3.0501,10.013 -3.0501,10.995 -0.1899,15.708 1.9064,2.944 6.2908,5.89 10.8659,7.066 9.7223,2.75 12.9628,8.247 8.5784,14.922 -5.5282,8.837 -18.8726,10.997 -35.2667,5.498 z m -6.4814,-75 c 3.6221,-2.356 5.9095,-8.639 9.1503,-24.738 4.3844,-21.794 4.1938,-28.665 -0.953,-28.665 -2.0972,0 -6.291,1.57 -8.9598,3.533 -2.8594,2.16 -10.4848,6.674 -16.966,10.21 -10.48478,5.693 -12.00999,7.068 -12.00999,11.976 0,6.283 10.2942,19.633 20.01639,25.721 6.4813,3.926 6.8627,4.123 9.7221,1.963 z"
       id="path235"
       style="stroke-width:0.193463" />
    <path
       d="m 828.57394,12254.425 c 0,-2.356 2.6686,-10.209 5.71879,-17.67 7.81592,-18.456 6.86263,-20.419 -9.3409,-18.456 -38.69801,5.3 -62.71746,-2.945 -75.87104,-26.113 -4.19381,-7.264 -5.33766,-12.174 -5.90958,-25.131 -0.95305,-19.044 2.2877,-31.609 11.24723,-42.802 4.95654,-6.281 6.86287,-7.264 13.72551,-7.264 6.86264,0 8.57841,0.983 15.44104,9.032 19.25373,22.579 21.73199,24.739 25.73523,22.382 4.76573,-2.552 5.33766,-10.407 1.33441,-17.669 -1.33441,-2.75 -5.33765,-10.014 -8.57841,-16.297 -3.43153,-6.479 -5.90957,-13.547 -5.52822,-15.708 0.76226,-5.3 10.86588,-10.601 23.06618,-12.368 10.48474,-1.571 15.25047,1.57 19.82564,12.565 4.38437,10.799 5.33765,35.341 1.71554,47.906 -5.52822,20.027 -21.92254,29.254 -39.26993,22.383 -4.76573,-1.965 -10.67509,-3.731 -13.34414,-3.926 -4.00324,-0.197 -4.76573,0.588 -4.76573,5.496 0,4.713 2.0969,7.658 10.29417,14.529 l 10.48453,8.835 15.25048,-0.981 c 18.30066,-1.178 26.30715,-4.32 35.83862,-14.137 6.86264,-6.871 19.25372,-31.02 26.30692,-51.243 5.52845,-15.903 12.77244,-31.021 17.53817,-36.715 5.71902,-6.872 18.30045,-15.314 22.87561,-15.314 8.00649,0 6.48151,8.834 -7.0532,38.286 -7.43456,16.099 -22.30391,50.064 -38.12631,87.369 -10.67532,24.934 -10.48452,27.487 1.90633,35.144 4.76574,2.944 6.67208,5.301 6.67208,8.835 0,8.246 -6.67208,11.191 -24.97251,10.602 -8.76898,-0.196 -19.63509,0.394 -24.01946,1.178 -7.62535,1.57 -8.19705,1.375 -8.19705,-2.748 z"
       id="path237"
       style="stroke-width:0.193463" />
    <path
       d="m 651.09686,12172.748 c -2.09712,-2.747 -1.71577,-4.908 3.81245,-15.509 3.62189,-6.873 5.90959,-13.745 5.33766,-15.315 -0.57192,-1.766 -5.14709,-3.339 -12.2003,-4.32 -12.77221,-1.571 -28.21349,-8.835 -39.46072,-18.651 -4.1938,-3.926 -10.29395,-8.639 -13.5347,-10.604 -3.04997,-2.158 -10.86589,-8.442 -17.1566,-13.938 -6.29093,-5.498 -15.63183,-13.156 -20.96949,-16.689 -5.14709,-3.533 -15.44105,-11.976 -22.87561,-18.455 -7.24399,-6.677 -18.49122,-15.512 -24.78194,-19.831 -16.96625,-11.386 -21.92255,-16.687 -21.92255,-22.97 0,-4.516 -2.0969,-6.676 -11.81916,-13.352 -11.05667,-7.461 -12.77222,-8.049 -22.49447,-7.264 -5.71879,0.391 -11.62838,0.391 -12.77222,0 -4.38438,-1.57 -2.66883,-9.62 3.43132,-15.51 12.00972,-11.584 11.24723,-16.689 -2.66884,-20.617 -11.05644,-2.944 -16.01296,-7.066 -23.06617,-18.258 -3.43131,-5.498 -11.4378,-16.1 -17.72873,-23.756 -16.39433,-19.83 -26.30694,-33.771 -43.46375,-61.651 -8.38762,-13.547 -20.39756,-32.199 -26.49771,-41.426 -38.50744,-56.743 -37.93552,-55.956 -35.64782,-60.67 3.24074,-6.085 8.95953,-6.87 18.68179,-1.961 4.76573,2.355 11.24724,4.318 14.2972,4.123 4.57516,-0.197 38.31687,-20.028 61.19248,-36.126 6.86264,-4.909 19.44429,-9.426 25.92579,-9.426 2.8594,0 9.3409,1.376 14.10664,3.143 10.67531,3.731 13.5347,10.012 8.38783,18.258 -1.71576,2.75 -6.29093,11.389 -9.91282,19.046 -5.33765,10.993 -6.86264,16.099 -6.29094,22.578 0.76249,11.976 4.76574,11.976 20.58814,0.982 21.35063,-15.117 60.04864,-26.702 70.15202,-21.009 9.3409,5.106 2.85962,11.78 -17.34738,17.671 -28.97575,8.639 -51.85136,24.934 -65.38629,46.727 -8.57819,13.746 -12.77222,15.709 -25.35387,11.389 -11.4378,-3.928 -20.20677,-12.172 -21.73176,-20.42 -1.14385,-5.301 2.47804,-33.966 5.52822,-43.782 1.52498,-5.106 -0.95328,-11.388 -4.19381,-11.388 -4.95652,0 -35.26668,18.26 -40.03264,24.15 -6.29071,7.656 -5.71879,11.387 3.05019,22.381 7.81591,9.622 10.29417,13.351 35.64804,53.209 15.82219,24.933 28.02269,39.659 32.979,39.659 4.00324,0 8.95977,-5.89 17.34738,-20.419 10.48475,-18.259 24.21002,-29.844 53.56736,-44.763 25.35364,-12.762 37.55416,-21.402 42.12933,-29.844 1.14362,-2.16 2.66882,-9.818 3.24075,-16.885 1.33419,-17.082 4.76573,-17.67 12.20029,-2.161 4.38437,9.228 5.33766,13.351 4.38437,19.438 -1.52497,9.229 -7.43456,23.364 -12.77221,30.432 -7.244,9.424 -43.08238,33.378 -61.19248,40.641 -22.87561,9.424 -39.84164,28.274 -39.84164,44.176 0,15.903 15.25048,30.433 31.83515,30.433 12.96301,0 26.11659,-8.837 55.4737,-37.109 46.51392,-44.763 48.99196,-46.728 57.3798,-48.299 16.96603,-2.944 20.58814,4.909 7.43456,16.495 -4.3846,3.925 -18.30044,17.668 -30.88208,30.627 -12.77245,12.957 -32.59787,32.199 -44.22647,42.801 -11.62837,10.602 -22.11311,21.401 -23.25695,24.15 -1.90612,3.926 -1.14363,6.478 4.19403,16.885 6.48128,12.958 11.81893,17.276 20.7787,17.276 3.04996,0 12.00972,2.357 20.01621,5.106 16.3941,5.889 30.69153,5.693 43.27317,-0.196 9.72204,-4.91 12.96279,-11.192 14.48777,-28.076 1.71577,-17.868 0.18989,-21.599 -11.24724,-27.881 -4.9563,-2.749 -8.95954,-6.282 -8.95954,-7.854 0,-8.834 27.26021,-16.687 40.60435,-11.386 11.43781,4.318 12.00972,7.657 10.67531,47.316 -1.14385,31.807 -0.95306,35.144 2.09691,38.68 9.15033,10.404 27.45099,0.783 43.65453,-23.169 16.20353,-23.561 29.16632,-33.769 43.27317,-33.769 8.57841,0 10.86588,4.319 6.10015,11.584 -6.10015,9.619 -28.02269,36.517 -44.60759,54.385 -8.95977,10.012 -20.58813,23.559 -25.54443,30.432 -5.1471,6.871 -11.43803,15.313 -14.29742,18.456 -7.43456,8.245 -8.19706,12.761 -3.81269,20.222 4.00325,6.676 20.20679,16.099 28.0227,16.099 2.09691,0 8.95977,-1.962 14.86935,-4.32 13.5347,-5.301 20.96927,-13.94 39.4605,-45.353 19.63486,-33.77 32.97899,-50.263 46.13257,-57.134 6.67207,-3.533 11.81916,-4.909 14.29719,-4.123 7.05344,2.356 4.76596,9.424 -8.38761,25.524 -7.62535,9.228 -29.16654,42.408 -45.75144,70.682 -4.1938,7.068 -10.48451,17.276 -13.72527,22.577 -7.62535,11.781 -8.00649,18.26 -1.33442,24.15 7.81569,6.871 9.15012,10.799 5.71879,16.1 -4.19381,6.478 -14.2972,8.246 -24.01945,4.123 -7.24399,-2.946 -8.19705,-2.946 -14.86912,0.589 -11.43781,5.889 -14.86912,6.477 -17.72852,2.944 z m -38.12631,-107.788 c 6.10015,-6.871 7.81592,-10.406 7.43456,-14.332 -0.57193,-4.713 -1.52498,-5.498 -10.86588,-6.873 -7.24399,-0.981 -12.00972,-3.141 -16.77546,-7.264 -7.81592,-7.263 -15.63183,-7.657 -26.30715,-1.375 -13.15335,7.658 -11.81893,10.407 13.34415,29.844 15.8224,11.977 22.3039,11.977 33.16978,0 z"
       id="path239"
       style="stroke-width:0.193463" />
    <path
       d="m 981.65021,12133.678 c -10.29396,-4.516 -11.24724,-23.169 -1.52499,-31.806 5.71879,-5.302 10.48453,-5.695 18.10987,-1.571 12.39111,6.675 10.67531,29.45 -2.47826,34.359 -7.05342,2.355 -6.67206,2.355 -14.10662,-0.982 z"
       id="path241"
       style="stroke-width:0.193463" />
    <path
       d="m 1126.5294,12072.813 c -37.5542,-3.533 -84.068,-11.584 -109.2311,-18.65 -7.8159,-2.357 -21.9226,-5.891 -31.26371,-8.051 -9.34068,-2.16 -18.68158,-4.908 -20.77871,-6.087 -2.0969,-1.178 -12.00973,-4.122 -22.11311,-6.872 -46.51371,-11.975 -98.3653,-35.144 -144.11673,-64.004 -59.09536,-37.305 -61.57362,-38.875 -94.36205,-65.97 -36.21997,-29.843 -52.61407,-45.353 -96.07804,-90.512 -34.12261,-35.34 -48.03868,-51.44 -58.71399,-67.735 -2.85963,-4.32 -7.81593,-11.388 -10.86611,-15.706 -3.24053,-4.319 -6.86264,-10.015 -8.19705,-12.763 -1.33441,-2.748 -6.4815,-10.994 -11.24724,-18.652 -19.44428,-30.432 -30.50095,-50.457 -43.6543,-78.534 -7.43479,-16.099 -16.5849,-35.538 -20.01644,-43.194 -12.96279,-27.291 -31.45379,-81.676 -35.26646,-104.059 -0.95329,-5.3 -3.62211,-13.939 -5.71902,-19.043 -2.09691,-5.106 -5.14709,-18.85 -6.67207,-30.433 -1.52498,-11.78 -4.00325,-27.88 -5.7188,-35.931 -6.86285,-32.393 -10.29417,-124.083 -6.86285,-180.628 2.47826,-39.266 6.4815,-74.805 9.91282,-85.602 0.95328,-3.339 3.05018,-13.155 4.57517,-21.597 1.52498,-8.64 5.14709,-24.74 8.19705,-36.127 3.24075,-11.387 7.62535,-27.683 9.91282,-36.322 6.29094,-24.149 16.77546,-52.815 26.87885,-74.608 3.05018,-6.478 9.53169,-21.008 14.48798,-32.394 5.1471,-11.388 16.01297,-32.005 24.59138,-46.14 8.38785,-13.939 17.72875,-29.451 20.58814,-34.359 9.3409,-16.295 43.8451,-66.166 58.71422,-85.21 23.6381,-30.039 74.15527,-80.695 96.84031,-97.382 11.05667,-8.051 23.63832,-18.26 28.40405,-22.578 12.77222,-12.174 53.37657,-40.251 83.49617,-57.725 14.86912,-8.834 27.64134,-15.903 28.59461,-15.903 0.95307,0 5.71879,-2.552 10.48475,-5.693 4.76574,-3.141 10.67532,-6.283 13.15335,-7.068 2.47826,-0.785 6.67207,-2.945 9.15034,-4.713 5.14709,-3.338 21.35063,-10.602 34.5042,-15.313 4.76574,-1.768 9.53146,-3.731 10.48453,-4.517 1.14384,-0.784 5.33787,-2.552 9.53168,-3.926 4.19381,-1.375 9.3409,-3.534 11.43781,-4.711 11.24723,-6.874 90.74015,-30.041 127.72235,-37.305 62.7175,-12.172 93.5998,-15.118 155.364,-15.314 38.8888,0 45.942,0.392 84.8308,4.515 40.7949,4.123 130.7728,23.953 164.5143,36.127 7.4343,2.748 14.6783,4.908 16.0129,4.908 1.144,0 7.816,2.551 14.6784,5.693 6.8629,2.946 15.2507,6.479 18.3006,7.658 36.9825,13.351 109.2312,51.44 143.9259,75.589 41.1764,28.666 44.2267,31.217 78.1589,59.884 5.5284,4.514 10.6752,8.244 11.819,8.244 6.4811,0 69.3896,62.239 85.5931,84.819 4.1938,5.691 10.8659,13.939 14.6786,18.258 21.3508,23.561 38.5074,47.907 67.674,96.598 5.1471,8.442 14.2972,23.756 20.588,33.965 6.1003,10.211 11.2471,19.635 11.2471,20.616 0,1.178 2.6691,5.89 5.7191,10.799 3.0499,4.907 5.7187,10.209 5.7187,11.977 0,3.142 4.1938,13.546 14.8692,37.107 6.1001,13.352 20.0164,54.188 26.1165,76.571 8.9596,32.592 17.3474,70.68 20.9693,95.223 1.5253,10.799 3.6221,22.775 4.5749,26.505 0.9534,3.73 2.8599,29.843 4.0037,57.92 1.906,43.194 1.7154,56.938 -0.7627,90.315 -5.1468,67.147 -9.9125,96.008 -27.8319,170.812 -5.9095,24.541 -17.5381,56.545 -30.6917,84.817 -6.291,13.155 -11.2473,24.738 -11.2473,25.72 0,0.981 -3.2405,8.444 -7.4345,16.297 -36.029,71.072 -56.2359,103.861 -92.6465,151.768 -9.9129,13.154 -79.8743,84.032 -98.1747,99.346 -5.7191,4.907 -11.6286,10.209 -13.3442,11.779 -25.7352,25.524 -92.0743,72.841 -132.4881,94.437 -31.6448,17.082 -60.2395,31.416 -74.3458,37.502 -12.2005,5.301 -66.9118,21.988 -92.456,28.076 -5.719,1.57 -18.1098,4.908 -27.6418,7.657 -9.3406,2.945 -21.9223,5.89 -27.6413,7.067 -5.7188,0.981 -15.6316,2.749 -21.9226,3.927 -6.2906,1.177 -29.929,4.32 -52.4232,6.872 -34.1229,4.123 -49.3734,4.714 -91.5027,4.714 -27.8321,-0.197 -62.7177,-1.375 -77.5868,-2.751 z m 141.8293,-16.687 c 14.8691,-0.982 31.2635,-2.947 36.2197,-4.125 4.9565,-1.177 14.2974,-2.944 20.5882,-3.926 19.0631,-2.748 42.5108,-7.068 68.627,-12.172 39.0791,-8.051 49.945,-10.603 60.6207,-14.725 5.5283,-2.16 20.016,-7.266 32.2166,-10.996 12.2003,-3.926 29.7382,-10.994 39.0791,-15.707 9.1504,-4.516 23.2569,-11.387 31.0729,-15.118 18.3007,-8.443 63.6705,-33.966 72.4395,-40.838 3.6221,-2.749 8.9597,-6.48 11.8189,-8.05 7.4348,-4.318 29.1666,-20.026 42.7015,-30.823 6.4815,-5.106 18.682,-14.922 26.8789,-21.598 8.3878,-6.675 28.0227,-24.738 43.8449,-40.249 15.8226,-15.708 32.7886,-32.003 37.9357,-36.518 5.147,-4.319 14.4878,-14.53 20.7785,-22.187 6.2909,-7.853 14.8696,-18.259 19.2539,-23.167 4.1938,-4.908 12.5817,-16.493 18.6818,-25.719 5.9096,-9.229 15.6316,-23.561 21.16,-32.005 19.0632,-28.271 65.3863,-120.549 75.1084,-149.608 18.3006,-54.188 24.0195,-74.803 29.7384,-106.021 1.5253,-8.639 4.0031,-21.402 5.7191,-28.468 1.525,-7.069 3.6218,-20.616 4.7655,-30.433 1.1438,-9.621 3.4313,-24.738 4.9565,-33.377 3.4316,-18.455 4.0035,-117.606 0.7625,-143.325 -0.9533,-8.639 -2.6687,-24.935 -3.8125,-36.323 -2.4784,-24.541 -4.0034,-33.377 -9.3411,-53.797 -2.2875,-8.637 -4.0032,-19.044 -4.0032,-23.166 0,-4.123 -1.7158,-10.996 -3.8125,-15.315 -2.0972,-4.32 -4.7657,-12.369 -5.9095,-18.062 -0.9531,-5.694 -3.0502,-13.547 -4.575,-17.277 -1.5252,-3.731 -4.0037,-11.978 -5.719,-18.063 -1.5252,-6.088 -3.6221,-11.584 -4.5754,-12.174 -0.9533,-0.588 -2.6686,-5.891 -4.003,-11.387 -1.3346,-5.693 -4.3846,-14.725 -6.6723,-20.223 -2.478,-5.301 -7.6254,-17.279 -11.6284,-26.506 -15.0597,-35.144 -24.5914,-54.385 -32.979,-66.557 -4.7657,-7.068 -10.4847,-15.51 -12.5817,-18.848 -40.4138,-66.167 -86.7371,-122.907 -153.4575,-188.483 -12.2003,-11.977 -23.257,-21.204 -28.5947,-23.366 -4.7659,-2.158 -12.2003,-6.478 -16.5846,-9.816 -4.3848,-3.338 -12.3911,-9.227 -17.7288,-12.958 -5.3377,-3.731 -13.7255,-10.012 -18.6818,-13.742 -11.438,-9.031 -50.3265,-33.379 -53.1862,-33.379 -0.953,0 -4.003,-1.57 -6.4813,-3.533 -4.3846,-3.536 -54.139,-29.647 -76.6337,-40.446 -14.6784,-6.871 -59.6671,-23.953 -68.0551,-25.721 -3.6217,-0.785 -11.4379,-3.533 -17.1566,-5.888 -5.7191,-2.554 -14.2973,-5.106 -19.063,-5.891 -4.7659,-0.786 -10.8663,-2.553 -13.5349,-4.124 -2.6689,-1.374 -12.7722,-3.925 -22.4943,-5.693 -9.5319,-1.768 -19.6351,-3.926 -22.3036,-4.909 -5.1471,-2.16 -17.3476,-3.73 -75.1089,-10.013 -31.835,-3.533 -45.1792,-3.925 -92.4556,-3.141 -74.1555,1.376 -121.4317,7.069 -175.3802,21.401 -8.3878,2.16 -20.77891,5.104 -27.64155,6.479 -13.53471,2.553 -45.56065,12.369 -48.8014,14.922 -1.14385,0.982 -7.05343,3.337 -13.34415,5.496 -6.10014,1.963 -18.49122,7.069 -27.45077,10.996 -8.95976,3.926 -20.39757,8.835 -25.73522,10.602 -11.24724,4.318 -35.07591,16.296 -52.42329,26.701 -6.86286,4.125 -16.20354,9.621 -20.96949,12.37 -4.76573,2.749 -11.62837,6.872 -15.25048,9.228 -3.62189,2.355 -13.34391,8.638 -21.54119,13.939 -8.19705,5.301 -19.82565,13.548 -25.735,18.456 -20.01621,16.296 -32.02617,24.935 -41.55763,30.039 -5.14686,2.75 -10.67531,6.675 -12.39086,8.639 -3.62211,4.32 -34.88555,33.77 -39.46051,37.108 -1.90633,1.179 -10.1036,10.405 -18.49122,20.418 -8.38784,10.015 -20.39757,24.15 -26.49772,31.219 -12.39108,14.332 -20.96927,25.524 -38.69801,51.046 -6.29094,9.229 -13.34414,19.241 -15.63161,21.991 -2.09713,2.943 -4.76573,7.46 -5.71901,10.209 -0.95306,2.553 -9.15034,16.295 -17.91931,30.039 -24.01946,37.696 -52.99521,98.562 -62.33611,131.349 -1.90633,6.479 -4.76595,15.707 -6.29094,20.615 -5.90957,16.69 -12.77221,41.427 -12.77221,45.157 0,2.16 -2.0969,10.603 -4.76574,19.045 -2.66882,8.444 -4.76572,17.671 -4.76572,20.42 0,2.748 -1.71578,11.584 -3.62211,19.633 -7.62514,30.825 -8.76898,46.532 -8.76898,135.276 v 85.406 l 7.24399,42.213 c 8.95977,54.188 19.63486,98.757 29.73847,124.673 2.09691,5.496 6.48129,17.866 10.10339,27.486 7.05321,20.027 49.94524,108.575 64.81437,134.296 16.96602,29.253 34.5042,54.189 62.5269,89.332 3.62187,4.712 10.10338,12.762 14.2972,18.063 4.19403,5.301 15.44104,16.689 24.78194,25.329 9.53168,8.637 23.63832,22.381 31.45401,30.43 19.82565,20.812 79.11179,70.289 96.26861,80.694 4.19381,2.554 12.77222,8.443 19.06293,12.959 6.29093,4.515 19.63508,12.762 29.5479,18.455 9.91282,5.694 21.5412,12.37 25.735,14.727 12.2003,7.067 33.16979,17.669 46.70449,23.559 6.86287,2.945 22.87584,10.013 35.45749,15.707 12.77221,5.89 24.21002,10.601 25.54443,10.601 1.33442,0 9.72226,2.555 18.87236,5.696 22.11313,7.853 57.57055,14.92 111.70965,22.775 10.6753,1.57 21.5412,3.533 24.21,4.711 20.3973,8.051 120.2879,12.369 182.0523,8.051 z"
       id="path243"
       style="stroke-width:0.193463" />
    <path
       d="m 1159.3178,12040.417 c -70.3426,-3.728 -95.887,-5.889 -104.8467,-8.834 -5.147,-1.571 -15.8224,-3.928 -23.6381,-4.909 -25.7352,-3.533 -98.74668,-28.468 -141.8293,-48.299 -40.41377,-18.847 -94.93397,-49.672 -116.66595,-66.361 -7.24398,-5.694 -17.53795,-13.351 -22.8756,-16.885 -21.16006,-14.725 -63.86131,-51.047 -85.78386,-72.841 -7.244,-7.263 -17.53795,-16.689 -22.87561,-21.007 -20.20678,-16.493 -49.37332,-53.013 -85.02137,-106.415 -23.25696,-34.948 -79.68349,-146.074 -85.59307,-168.849 -1.33442,-4.907 -3.43132,-11.192 -4.95629,-14.135 -2.66884,-5.499 -3.62211,-8.837 -15.25049,-53.602 -10.10338,-39.658 -19.25372,-99.934 -22.68504,-151.374 -3.24075,-46.335 -2.47826,-82.462 3.04996,-136.258 2.2877,-23.167 10.48475,-67.932 14.29742,-79.123 1.71555,-4.516 3.81269,-13.547 4.76574,-20.026 2.28748,-14.333 9.91282,-41.23 16.01297,-55.957 2.47826,-5.89 4.9563,-12.959 5.52823,-15.706 0.76248,-2.749 3.43131,-9.818 5.90957,-15.708 2.47826,-5.889 9.53146,-22.774 15.44105,-37.304 12.00972,-30.039 20.20677,-44.566 53.37656,-96.203 21.35062,-33.377 29.16655,-44.571 56.99868,-80.694 19.63486,-25.721 68.62704,-75.983 93.79012,-96.206 12.20052,-9.816 43.27318,-31.217 45.37008,-31.217 0.76272,0 5.71901,-3.73 11.05667,-8.442 5.52822,-4.712 16.3941,-12.566 24.21002,-17.474 7.81592,-4.711 19.63508,-11.977 25.92579,-15.905 6.4815,-3.925 15.8224,-9.029 20.9695,-11.189 4.9563,-2.357 13.91584,-7.069 19.82541,-10.602 5.71902,-3.733 18.30067,-9.818 27.64157,-13.746 9.53146,-4.122 19.82564,-8.637 23.25696,-10.207 3.43132,-1.572 12.00973,-4.91 19.06293,-7.461 7.05343,-2.555 19.82565,-7.266 28.21327,-10.603 8.38783,-3.338 27.64156,-9.228 42.89204,-13.155 15.25044,-3.731 33.74174,-8.638 40.98554,-10.797 7.4344,-2.16 23.2569,-5.302 35.2666,-6.873 12.0097,-1.767 28.4041,-4.319 36.2198,-5.889 23.4477,-4.91 134.5852,-6.283 169.6614,-2.16 49.5639,5.889 64.0518,8.442 117.2378,20.811 22.4945,5.301 93.7901,30.431 120.2881,42.409 12.5817,5.693 33.1696,15.706 45.3699,22.382 19.8259,10.406 31.2636,17.08 65.9584,38.089 4.7657,2.749 16.3941,10.799 25.735,17.669 9.5312,6.874 22.3037,15.905 28.5944,19.833 12.2005,7.853 38.698,27.879 41.9389,31.609 1.1439,1.373 10.1035,10.21 20.3974,20.026 10.1036,9.621 25.5447,25.916 34.504,36.322 8.96,10.406 20.5884,23.559 25.926,29.253 5.3376,5.695 9.722,10.996 9.722,11.978 0,0.784 1.7158,3.141 3.8124,5.301 6.4816,6.676 31.073,40.838 37.5545,52.225 3.2407,5.891 13.3444,21.008 22.3039,33.967 16.7754,24.148 28.2132,46.139 41.3668,79.711 4.1938,10.8 8.9595,21.598 10.4846,24.149 3.0503,4.713 12.7724,31.218 16.7754,45.551 1.3346,4.908 3.8129,11.584 5.5284,14.725 1.5251,3.339 3.4316,9.62 4.1941,13.744 0.5714,4.318 3.2405,14.922 5.7188,23.561 6.8626,22.773 13.916,56.348 16.2038,76.57 1.1438,9.818 3.431,26.113 5.1468,36.323 2.478,14.53 3.2406,32.198 3.2406,81.479 0,34.948 -0.9532,68.128 -2.0968,74.608 -0.9532,6.479 -3.8129,24.149 -6.1001,39.267 -2.2877,15.119 -5.5283,33.182 -7.244,40.249 -1.5252,7.069 -4.0032,19.044 -5.5285,26.505 -1.3344,7.658 -5.1468,22.58 -8.3878,33.377 -3.2405,10.799 -7.6248,24.935 -9.5315,31.416 -5.1468,17.276 -14.1068,38.089 -37.7444,87.368 -23.4478,48.692 -50.7083,95.419 -73.9652,125.852 -8.1968,10.995 -16.7754,22.382 -19.0627,25.524 -9.1506,12.762 -48.2297,52.225 -83.3058,83.835 -37.3634,33.574 -49.945,43.391 -98.5561,76.964 -18.1099,12.762 -59.6671,36.91 -69.0082,40.445 -4.0032,1.375 -10.294,4.713 -14.2972,7.461 -4.0035,2.945 -7.8159,5.105 -8.7692,5.105 -1.5249,0 -16.5849,6.282 -39.4604,16.689 -19.2538,8.639 -56.9985,22.578 -67.1019,24.738 -5.5282,1.178 -15.2508,3.73 -21.5414,5.693 -42.3199,13.744 -166.8018,23.758 -244.0073,19.633 z m 110.5658,-36.321 c 32.026,-2.749 80.2557,-10.406 93.409,-14.726 3.241,-0.981 12.2003,-3.14 20.0165,-4.907 19.8252,-4.123 92.2652,-29.058 111.8999,-38.483 8.769,-4.123 16.5851,-7.656 16.9663,-7.656 3.2407,0 55.4735,-28.47 80.0649,-43.588 29.9287,-18.259 44.9887,-29.45 87.6897,-64.397 13.9163,-11.389 29.9293,-24.543 36.0294,-29.452 21.5413,-17.474 76.2524,-82.264 100.0811,-118.783 16.013,-24.346 30.5011,-48.298 30.5011,-50.653 0,-0.787 3.8125,-8.248 8.1969,-16.69 34.8853,-63.809 56.6173,-122.71 70.7239,-192.802 7.6256,-37.697 10.6753,-57.528 10.6753,-67.146 0,-5.106 1.3346,-19.243 3.05,-31.415 4.7662,-35.538 0.7625,-131.546 -7.4343,-176.311 -3.241,-16.492 -15.6321,-68.521 -18.6819,-77.551 -1.1438,-3.143 -6.4814,-19.635 -12.2005,-36.324 -5.5282,-16.688 -13.3441,-37.893 -17.1566,-47.119 -3.8126,-9.229 -8.5781,-21.009 -10.6752,-26.31 -3.8125,-9.816 -21.9226,-45.943 -28.0227,-55.76 -1.7159,-2.944 -10.4846,-15.509 -19.4446,-27.879 -8.9593,-12.369 -20.5879,-28.665 -25.7347,-36.322 -5.1471,-7.461 -12.963,-17.671 -17.3476,-22.578 -4.194,-4.909 -11.0565,-13.155 -14.8694,-18.653 -9.722,-13.351 -65.0051,-70.878 -85.0211,-88.155 -36.9825,-32.2 -45.1793,-38.088 -81.9712,-58.313 -14.1064,-7.853 -30.3104,-17.277 -35.6481,-20.81 -35.4572,-23.364 -126.388,-62.632 -174.0453,-75.198 -28.2137,-7.264 -73.9649,-16.098 -103.894,-20.026 -44.4169,-5.693 -121.8129,-6.871 -162.036,-2.552 -39.0794,4.32 -92.6465,13.546 -113.4252,19.634 -8.9597,2.551 -27.0696,7.853 -40.41374,11.78 -13.15358,3.73 -30.31017,9.621 -38.12609,12.959 -7.62513,3.337 -19.44428,8.049 -26.30692,10.406 -16.77546,6.282 -50.70774,23.363 -82.92447,42.016 -14.67855,8.442 -34.88533,20.025 -44.79815,25.719 -9.91283,5.693 -21.5412,13.351 -25.735,16.884 -4.19404,3.536 -12.58166,10.013 -18.87259,14.333 -22.87561,16.689 -97.98416,92.475 -113.04385,114.464 -3.05018,4.123 -12.963,18.455 -22.11311,31.61 -9.15033,13.351 -24.40081,35.734 -33.9325,49.674 -26.4975,39.66 -55.66404,103.666 -71.29565,157.069 -2.8594,9.816 -6.67207,22.971 -8.76897,29.451 -1.90634,6.477 -4.76574,17.473 -6.29095,24.542 -1.52498,7.068 -4.00324,18.062 -5.71879,24.541 -12.96301,50.459 -18.11009,169.241 -9.72225,220.878 1.52498,9.229 3.62188,24.15 4.76573,33.377 2.47826,21.009 12.96301,69.111 20.58814,94.242 2.0969,7.069 6.10014,19.83 8.76898,28.469 5.33765,17.867 20.20699,57.135 26.11636,68.717 31.07288,61.846 64.24266,117.802 86.54634,145.486 5.1471,6.48 14.488,18.652 20.77871,26.898 6.10037,8.442 11.81916,15.118 12.58165,15.118 0.76249,0 6.67207,6.675 12.963,14.528 10.86588,13.548 18.87237,21.009 63.28917,58.313 38.69801,32.396 80.4462,63.023 98.17494,72.054 5.1471,2.75 16.20354,9.229 24.21002,14.53 16.96626,11.387 58.90479,31.414 88.4527,42.408 11.43779,4.318 25.92556,9.817 32.2165,12.174 19.25372,7.264 52.61409,16.884 69.58009,20.419 8.9597,1.766 29.5479,6.085 45.7514,9.227 50.5172,10.405 129.4382,13.94 191.5837,8.639 z"
       id="path245"
       style="stroke-width:0.193463" />
    <path
       d="m 1177.0466,11952.067 c -7.6251,-4.319 -14.8691,-14.726 -14.8691,-21.793 0.1899,-13.94 13.5346,-29.255 25.5444,-29.255 7.6253,0 21.5411,8.64 24.9725,15.707 6.6723,13.548 1.7158,29.45 -11.0564,35.538 -10.1034,4.515 -15.6319,4.515 -24.5914,-0.197 z"
       id="path247"
       style="stroke-width:0.193463" />
    <path
       d="m 1051.6117,11924.383 c -5.7191,-0.981 -34.1228,-2.159 -62.90829,-2.944 -28.78518,-0.589 -55.47346,-1.964 -59.28592,-2.945 -10.10361,-2.553 -15.44128,-7.658 -31.45402,-30.039 -24.5916,-34.36 -40.9857,-54.386 -66.72093,-81.676 -20.39735,-21.793 -26.68828,-30.04 -35.64782,-46.336 -17.15682,-31.806 -18.30045,-46.533 -5.14709,-73.43 5.52845,-11.388 10.29418,-17.474 19.44429,-25.719 20.7787,-18.849 24.40081,-19.439 37.74495,-6.481 10.29418,9.818 12.39109,17.474 6.29072,22.58 -1.71555,1.57 -7.05322,9.031 -11.81894,16.492 -8.38785,13.154 -8.76898,14.332 -9.3409,31.022 -0.76249,16.49 -0.57192,17.67 6.29071,32.198 17.53817,37.697 33.74171,46.923 91.88401,52.619 43.08261,4.122 40.41378,3.336 61.95497,20.025 5.90957,4.712 11.43776,8.442 12.39086,8.442 0.9533,0 4.766,2.357 8.3879,5.105 9.1503,7.068 25.1633,15.118 40.7949,20.616 11.0566,3.73 17.1568,4.712 35.2666,4.712 20.2068,0 22.6851,-0.394 31.4541,-5.301 17.9192,-9.816 33.3603,-30.628 37.9355,-50.656 2.8596,-13.35 7.8159,-19.633 15.2505,-19.633 7.0534,0 12.5816,5.498 12.5816,12.37 0,9.621 -10.6753,50.066 -16.966,64.594 -16.3943,36.912 -48.0392,56.938 -89.406,56.348 -10.1033,-0.195 -23.2568,-1.176 -28.9757,-1.963 z"
       id="path249"
       style="stroke-width:0.193463" />
    <path
       d="m 1435.7324,11919.672 c -11.4378,-1.571 -28.2133,-3.535 -37.173,-4.713 -8.9596,-1.178 -27.8322,-2.553 -41.9391,-3.142 -47.0854,-1.963 -81.0176,-7.459 -100.8433,-15.901 -19.8256,-8.443 -34.5042,-27.686 -39.4605,-51.637 -2.6688,-13.549 -3.4313,-33.377 -1.5249,-41.035 1.3343,-5.104 9.7219,-10.21 16.5848,-10.21 8.769,0 12.5815,5.695 14.6783,21.401 3.6221,26.31 11.6286,37.305 37.1731,51.047 13.5347,7.265 39.4605,10.798 55.2829,7.854 11.0567,-2.16 33.9325,-12.959 42.1293,-20.026 26.8791,-22.971 52.2327,-38.678 63.0986,-38.678 1.5252,0 10.2944,-1.375 19.4445,-3.141 8.9596,-1.571 21.1599,-3.73 26.8789,-4.909 9.913,-1.572 30.501,-9.425 43.2734,-16.1 3.0497,-1.768 10.4845,-8.442 16.3941,-14.922 22.3037,-24.934 24.4008,-54.189 6.1001,-89.528 -3.6219,-7.266 -6.672,-14.922 -6.672,-17.082 0,-5.106 11.2472,-16.689 18.1098,-18.456 3.4314,-0.98 7.2441,-0.393 10.2939,1.375 8.5788,4.908 27.4508,37.107 38.3172,65.38 3.6219,9.228 4.5749,15.511 4.5749,31.414 0.1899,18.258 -0.3811,21.007 -6.2907,35.142 -5.9096,14.532 -7.4347,16.298 -28.5946,34.95 -39.651,35.34 -65.1958,59.293 -84.8308,79.516 -10.6753,10.995 -21.1598,21.006 -23.4473,22.186 -4.9567,2.551 -13.9163,2.356 -41.5576,-0.785 z"
       id="path251"
       style="stroke-width:0.193463" />
    <path
       d="m 1292.7593,11852.327 c -12.9628,-6.478 -23.0662,-19.24 -26.8789,-33.964 -5.7188,-22.58 -2.8593,-25.918 27.8321,-32.2 33.9323,-7.069 70.3426,-17.082 89.5966,-24.738 22.8756,-9.032 61.5734,-25.918 68.6268,-30.04 17.9193,-10.014 44.6076,-26.701 54.3298,-33.574 17.5377,-12.565 19.4443,-13.547 25.9258,-10.798 3.8124,1.766 7.0534,5.89 10.6751,13.548 4.5752,9.424 5.3376,13.349 5.3376,27.682 -0.1898,13.941 -0.9532,17.866 -4.7657,24.543 -9.3406,16.295 -19.4443,24.345 -43.2729,35.144 -12.2003,5.694 -20.0164,7.46 -39.8421,10.013 -29.738,3.73 -51.0889,10.601 -63.2894,20.42 -13.725,10.994 -38.3166,26.897 -48.992,31.806 -13.7252,6.282 -44.4168,7.461 -55.2828,2.158 z"
       id="path253"
       style="stroke-width:0.193463" />
    <path
       d="m 1055.4243,11843.296 c -22.3039,-8.051 -30.1198,-11.976 -45.37,-23.56 -17.53822,-13.351 -38.50749,-20.811 -63.28942,-22.186 -19.06316,-1.178 -47.46699,-8.049 -59.47695,-14.529 -10.86587,-5.89 -22.49425,-18.258 -28.02246,-29.647 -4.95653,-10.012 -5.90959,-14.332 -5.90959,-25.916 0,-12.762 0.57171,-14.921 6.67208,-24.345 7.62512,-11.388 14.10662,-16.494 20.77869,-16.494 2.66884,0 11.62838,5.106 20.20679,11.192 20.39757,14.922 72.82085,44.569 93.40898,53.012 42.89178,17.473 85.21198,30.235 124.48178,37.304 15.2506,2.747 19.2538,4.318 22.3038,8.245 3.8127,5.104 4.0032,4.909 -3.8125,23.168 -12.3911,29.842 -41.7481,38.286 -81.9712,23.756 z"
       id="path255"
       style="stroke-width:0.193463" />
    <path
       d="m 1675.5455,11766.528 c -7.2439,-5.103 -12.0097,-15.509 -12.0097,-25.523 0,-8.245 0.9533,-10.21 7.4348,-16.885 6.4815,-6.871 8.3878,-7.657 16.7754,-7.657 20.3976,0 32.4071,18.652 24.5914,38.09 -5.1468,12.762 -26.3071,19.634 -36.7919,11.975 z"
       id="path257"
       style="stroke-width:0.193463" />
    <path
       d="m 691.89156,11753.57 c -13.72528,-4.122 -21.73176,-24.738 -14.48778,-37.5 7.43456,-13.351 27.06942,-18.652 38.12609,-10.21 11.4378,8.836 12.39109,29.647 1.71578,41.232 -6.67208,7.264 -15.63185,9.62 -25.35409,6.478 z"
       id="path259"
       style="stroke-width:0.193463" />
    <path
       d="m 1171.137,11739.042 c -1.7155,-1.571 -3.4313,-6.676 -4.1938,-11.192 -3.4314,-20.811 -14.6786,-40.837 -32.5979,-57.133 -12.2003,-11.191 -12.9628,-15.707 -5.5282,-31.022 8.769,-17.867 16.2036,-41.034 16.2036,-50.653 0,-16.689 -14.4881,-30.629 -34.1229,-32.986 -12.963,-1.57 -20.7787,1.767 -32.2165,13.743 -8.9598,9.425 -10.2942,11.78 -12.963,24.937 -2.0969,10.602 -2.6688,20.418 -1.9063,34.358 0.5719,10.799 1.5251,30.432 2.2876,43.585 1.1437,22.187 1.1437,24.15 -2.0971,25.329 -4.3843,1.767 -12.2003,-7.265 -19.8254,-22.775 -2.8597,-5.891 -11.2473,-21.204 -18.4912,-33.77 -14.1067,-24.542 -21.3507,-37.501 -30.3102,-54.583 -3.24074,-5.888 -8.5784,-15.117 -12.20051,-20.222 -4.38438,-6.675 -7.05321,-13.938 -9.15011,-24.737 -3.62211,-18.85 -2.28769,-31.218 4.57516,-39.465 10.48453,-12.957 21.92236,-15.51 81.58986,-17.473 43.4637,-1.375 48.42,-1.963 55.664,-5.891 9.3409,-4.907 13.7255,-10.602 15.2504,-20.615 0.7626,-5.496 -0.3811,-10.209 -6.1001,-22.186 -9.1503,-20.223 -9.5314,-30.236 -0.953,-47.317 11.6283,-23.561 9.5314,-53.207 -4.0032,-60.471 -3.6222,-1.768 -11.4381,-2.749 -23.4478,-2.749 -15.4411,0 -20.5881,0.981 -33.9323,5.89 -19.6348,7.461 -25.9256,7.461 -40.223,-0.197 -15.8224,-8.245 -27.26019,-9.424 -37.17301,-3.731 -12.77221,7.461 -16.58467,20.813 -18.30044,64.794 -2.28748,51.439 -3.43131,65.77 -5.90958,70.679 -2.85939,5.695 -11.4378,14.333 -17.53795,17.474 -6.4815,3.535 -22.30391,2.553 -34.31363,-1.963 -11.05645,-4.32 -35.26669,-17.082 -44.41681,-23.561 -2.66882,-1.766 -11.62858,-7.264 -20.01621,-11.976 -81.39926,-47.12 -91.69344,-54.189 -87.11827,-58.901 2.85939,-2.946 21.16006,-2.749 38.69801,0.589 18.6818,3.339 56.42675,1.374 73.20221,-4.122 16.77546,-5.498 25.1633,-11.978 29.92903,-22.972 4.76574,-10.994 3.43132,-20.615 -4.57516,-32.984 -12.77222,-19.635 -33.36036,-21.008 -70.72395,-4.123 -11.05667,4.908 -21.92255,9.031 -24.01946,9.031 -2.0969,0 -8.57841,-4.712 -14.48798,-10.602 -19.63486,-19.83 -29.73825,-25.918 -53.37657,-32.396 -11.43781,-3.143 -13.15335,-7.461 -12.77222,-32.2 0.38114,-25.916 2.8594,-32.002 13.34415,-33.769 17.91931,-3.141 38.50744,-14.921 54.32984,-31.413 10.67509,-11.389 16.96603,-12.174 30.31017,-4.123 34.12284,20.615 66.53013,19.83 78.73043,-1.768 7.62513,-13.154 8.19705,-23.561 2.28748,-35.734 -10.67532,-21.399 -24.21002,-27.092 -64.24245,-26.897 -15.25048,0.197 -36.02918,0.981 -46.51393,1.768 -14.86912,1.178 -19.06293,0.98 -20.39735,-1.18 -2.28768,-4.121 0.57171,-6.479 28.59463,-22.774 47.27619,-27.488 73.39255,-42.998 85.02114,-50.655 25.73523,-17.081 57.18925,-20.812 72.24893,-8.638 9.3409,7.656 10.67532,13.154 12.77245,52.422 3.04995,60.077 5.71879,76.177 14.2972,86.583 9.53146,11.779 23.0664,12.369 43.0824,1.963 14.2973,-7.46 20.7789,-7.264 40.9857,1.374 29.1665,12.567 54.3298,11.193 62.3363,-3.14 3.2407,-5.694 4.0032,-10.014 3.8124,-25.131 -0.1899,-16.295 -0.7624,-19.241 -6.4812,-30.824 -5.1472,-10.603 -6.1004,-14.138 -5.3377,-22.188 0.5717,-5.889 2.6688,-12.368 5.5283,-16.295 6.1001,-8.834 7.2439,-27.291 2.2874,-37.108 -4.7657,-9.424 -20.7787,-16.099 -40.6044,-16.884 -63.2891,-2.553 -88.07121,-4.909 -94.93389,-8.64 -10.29418,-5.498 -13.34415,-8.442 -15.63161,-14.529 -2.47827,-7.067 -2.47827,-27.487 0.18989,-37.303 3.05018,-11.583 20.58813,-42.998 42.89181,-76.963 10.8658,-16.69 22.1131,-34.95 24.782,-40.643 17.7287,-35.732 26.4976,-35.536 23.257,0.589 -0.9532,10.21 -1.5251,31.022 -1.1437,46.139 0.7624,27.095 0.7624,27.684 7.2438,40.249 5.5284,10.799 8.1972,13.547 16.0129,17.473 18.6818,9.623 40.4138,4.714 51.0891,-11.189 5.1471,-7.855 6.1002,-10.604 5.9096,-20.812 -0.1899,-12.37 -3.4313,-21.204 -15.8224,-44.176 -3.05,-5.89 -5.7188,-12.173 -5.7188,-14.137 0,-2.159 7.2437,-11.779 16.0127,-21.597 16.0132,-17.67 20.9696,-26.7 25.7353,-46.139 3.0502,-11.975 7.4346,-14.921 23.8289,-16.098 16.013,-0.983 29.7384,0.589 34.3134,4.123 1.5251,1.373 3.8127,6.871 4.7657,12.172 3.4315,18.455 12.7724,35.93 27.0697,50.459 14.869,15.118 16.3943,20.614 8.9597,32.985 -6.6721,11.19 -14.2975,28.075 -15.8224,34.947 -4.9565,23.561 12.9628,45.55 36.9822,45.55 17.5382,0 27.0697,-6.872 36.7917,-26.309 7.4348,-14.923 8.5786,-29.844 5.3376,-71.075 -2.6685,-35.143 -2.0968,-38.678 6.1004,-34.75 2.6689,1.373 9.1504,10.994 16.3944,24.345 6.6719,12.37 19.2535,33.966 28.2132,47.906 8.9596,14.136 18.3002,29.451 20.9693,34.359 2.6691,4.909 7.6254,14.135 11.2473,20.616 7.0533,13.154 11.6284,34.359 9.5312,45.353 -1.9059,10.602 -12.772,21.794 -23.4476,24.149 -4.9563,0.981 -29.1661,2.356 -53.7574,3.143 -63.6707,1.765 -74.5366,5.496 -80.0651,26.504 -1.7156,6.873 -1.525,9.228 3.0502,20.223 12.2003,29.844 11.8191,25.916 3.6219,45.746 -6.6721,15.51 -7.4346,19.241 -7.4346,34.162 -0.1899,28.469 6.6721,34.359 38.698,32.985 17.9193,-0.786 21.732,-1.57 32.5979,-7.068 6.8627,-3.534 14.6785,-6.283 17.3471,-6.283 2.8597,0 11.8192,3.339 20.0165,7.461 25.5446,12.37 38.8885,9.816 48.6111,-10.013 3.8124,-7.263 4.7654,-17.082 9.3406,-84.621 2.0972,-31.61 5.5282,-41.427 16.7754,-48.692 7.816,-5.103 23.6384,-5.693 37.5542,-1.765 6.6721,1.765 34.3139,17.08 62.9085,34.946 13.725,8.444 35.8382,21.597 53.3761,31.413 27.0698,15.317 32.217,20.42 24.4009,23.561 -1.7159,0.785 -14.869,-0.195 -28.9758,-1.962 -35.2667,-4.714 -53.7581,-4.319 -66.9113,0.784 -17.1568,6.675 -24.5914,11.781 -30.5009,21.401 -7.4348,11.976 -7.6254,22.775 -0.7627,37.108 7.0533,14.332 13.1537,17.866 31.2636,17.866 18.4913,-0.196 28.4038,-2.552 44.4168,-10.798 18.8726,-9.817 21.5412,-9.424 37.9353,6.675 15.632,14.922 31.4542,24.346 47.4672,27.684 5.9096,1.178 12.0097,3.731 13.7255,5.496 1.9066,2.357 3.05,10.212 3.8124,26.899 0.9534,19.829 0.7628,23.954 -1.9058,26.898 -1.716,1.963 -4.5756,3.535 -6.291,3.535 -5.5282,0 -30.3103,9.423 -36.7919,13.939 -3.2404,2.357 -12.2003,10.406 -19.635,17.867 -7.6249,7.264 -15.0597,13.35 -16.7755,13.35 -1.7155,0 -8.7688,-2.944 -15.8221,-6.675 -14.4878,-7.656 -39.4606,-14.921 -50.5173,-14.921 -8.0065,0 -19.6351,5.3 -24.5913,10.995 -16.9661,19.829 -10.1034,43.98 16.0129,57.722 12.7722,6.48 13.9162,6.872 38.8889,7.461 14.1063,0.588 36.4103,-0.197 49.5639,-1.373 20.7787,-2.162 24.4008,-1.965 26.8787,0.588 4.3849,4.516 1.9064,7.657 -13.1533,15.707 -18.6817,10.014 -42.3201,23.756 -54.1392,31.61 -11.2471,7.265 -53.9485,32.2 -64.8144,37.696 -4.1938,2.16 -10.1034,5.498 -13.3444,7.265 -4.003,2.158 -10.4845,3.14 -21.1598,3.14 -14.1064,0 -16.2035,-0.587 -23.0664,-5.693 -12.2003,-9.226 -13.725,-15.511 -15.8222,-67.735 -2.6691,-60.863 -5.9095,-74.018 -21.1598,-82.265 -8.3881,-4.515 -20.9695,-3.338 -35.4573,3.534 -14.1068,6.479 -25.7354,6.479 -41.1763,-0.392 -9.9128,-4.518 -14.6787,-5.301 -29.9292,-5.301 -29.1663,-0.198 -36.4103,5.497 -36.6009,28.861 0,15.314 2.8594,28.468 8.9595,40.641 6.291,12.762 6.1002,17.278 -2.0968,35.929 -5.7191,12.959 -6.8627,17.279 -6.1002,25.132 1.1436,11.977 5.3376,18.258 15.2505,23.561 6.6721,3.533 12.0095,4.318 38.5072,4.908 58.1426,1.571 88.834,7.459 96.4592,18.258 1.9063,3.141 4.7655,9.621 6.1001,14.725 4.1938,16.493 -1.5252,34.36 -21.3506,65.97 -12.0098,18.847 -23.257,39.072 -30.1196,53.992 -3.05,6.479 -8.5782,16.885 -12.3911,22.971 -4.0032,6.086 -7.0534,11.781 -7.0534,12.567 0,2.945 -13.9158,24.148 -16.7753,25.327 -6.6723,2.552 -7.0534,-3.339 -4.194,-54.581 2.2877,-37.304 0.7627,-52.226 -6.8626,-65.577 -8.5784,-15.315 -27.4508,-26.114 -40.2231,-22.972 -15.6317,3.731 -32.9792,20.027 -32.9792,30.825 0,7.266 9.5316,36.912 16.3944,50.85 7.8159,15.709 6.6721,19.635 -10.2942,37.697 -12.9627,13.94 -15.6316,17.868 -19.8254,30.63 -2.8597,8.049 -5.5284,18.063 -6.291,21.99 -1.9063,12.565 -4.0032,13.35 -31.4539,13.35 -19.0632,0 -25.1633,-0.59 -27.2603,-2.945 z m 37.7449,-246.795 c 12.3909,-10.012 12.2003,-27.487 -0.7625,-36.322 -9.3408,-6.479 -17.9192,-5.89 -26.1165,1.962 -12.9628,12.175 -10.1034,31.807 5.5284,36.52 9.9129,2.945 15.8224,2.356 21.3506,-2.16 z m 25.354,-106.022 c 1.3343,-1.374 2.2874,-5.104 2.2874,-8.639 0,-4.712 -1.7155,-7.854 -7.4346,-13.155 -11.4378,-10.601 -17.5379,-13.154 -31.6445,-13.154 -15.8224,0 -23.257,3.142 -32.026,13.744 -7.244,8.834 -8.3878,13.351 -5.1471,19.83 1.9064,3.534 4.3847,3.731 36.7916,3.731 24.5914,0 35.6481,-0.786 37.1732,-2.357 z m -21.1602,-88.939 c 9.5316,-4.125 13.5348,-8.05 18.6819,-18.849 9.3408,-18.848 8.0065,-32.593 -4.7657,-47.513 -12.9628,-15.119 -28.4041,-20.222 -46.1327,-15.119 -9.9128,2.946 -17.5379,10.014 -23.2569,21.991 -8.5784,17.865 -5.3377,36.32 8.9595,50.261 11.6286,11.584 31.8354,15.511 46.5139,9.229 z m 116.8566,-0.984 c 5.1471,-2.746 5.5284,-7.852 4.194,-41.622 -1.1438,-24.738 -2.0972,-31.609 -4.5751,-34.162 -4.3846,-4.516 -11.2473,-2.356 -20.5882,6.283 -9.9128,9.227 -14.1067,20.811 -12.963,36.125 0.9533,12.958 6.672,22.579 18.682,31.022 6.8627,4.711 9.9127,5.301 15.2503,2.354 z m -254.1106,-2.158 c 7.244,-2.748 17.5381,-13.155 20.7787,-21.204 4.194,-10.406 3.4313,-23.561 -2.2875,-35.144 -8.769,-18.26 -23.8288,-25.524 -30.6915,-14.922 -4.5752,7.264 -4.0032,64.594 0.7625,69.895 3.6219,4.123 4.3846,4.123 11.4378,1.375 z m 352.4761,-18.26 c 7.244,-7.461 8.0065,-13.154 3.8125,-23.756 -3.2406,-8.049 -8.3877,-10.996 -18.8722,-11.191 -19.6351,-0.197 -25.3541,28.665 -7.4348,38.481 8.5782,4.909 15.2503,3.927 22.4945,-3.534 z m -437.49727,-2.944 c 10.29397,-10.603 5.7188,-27.881 -8.76897,-33.574 -7.43456,-2.946 -18.11009,1.571 -22.49447,9.424 -3.24075,5.693 -3.43132,7.658 -1.52521,14.136 4.57517,15.903 21.92278,21.204 32.78865,10.014 z m 225.89707,-113.876 c 8.0065,-3.73 16.3943,-13.154 18.6821,-21.204 0.953,-2.946 0.1899,-5.497 -2.8597,-8.639 -3.6219,-3.731 -5.5281,-4.123 -15.6316,-2.944 -6.2907,0.589 -20.5881,1.178 -31.8353,1.178 -16.7755,0 -21.3507,0.59 -24.782,3.533 -3.4313,2.75 -3.8126,4.123 -2.0969,8.639 3.2408,8.836 14.2972,18.456 25.1631,21.794 11.6286,3.534 21.5414,2.944 33.3603,-2.357 z"
       id="path261"
       style="stroke-width:0.193463" />
    <path
       d="m 1646.1884,11672.484 c -11.4378,-4.123 -20.9693,-10.995 -33.7415,-23.56 -18.11,-18.063 -20.9692,-25.524 -13.5349,-35.341 7.6254,-10.013 17.3474,-10.013 24.7822,-0.197 2.0969,2.553 8.1973,6.873 13.7255,9.622 34.3133,17.277 72.6301,4.318 97.0309,-32.985 11.0564,-16.493 14.6782,-29.059 17.7287,-61.649 3.0497,-31.219 5.3376,-37.108 21.9223,-60.473 16.2035,-22.381 28.976,-53.403 32.407,-77.946 3.813,-28.664 -0.3809,-43.389 -17.3473,-60.274 -11.4378,-11.388 -28.2133,-20.616 -40.0325,-22.383 -10.4844,-1.57 -16.5846,-7.461 -18.3001,-17.473 -0.7625,-5.695 -0.1899,-7.853 3.8124,-11.976 2.8595,-2.751 6.6723,-5.106 8.5782,-5.106 7.0535,0 54.1393,11.781 62.146,15.51 12.2003,5.695 34.1228,24.739 42.129,36.52 3.813,5.889 9.3412,16.295 12.0098,22.971 l 4.7658,12.368 -3.4313,67.345 c -1.7159,36.91 -2.6687,72.841 -1.9064,79.712 1.3345,14.333 -0.9528,25.523 -6.8624,33.377 -4.5755,6.086 -26.3074,22.775 -42.3202,32.592 -6.1001,3.73 -19.063,14.332 -28.5946,23.56 -26.6884,25.721 -61.1925,54.974 -75.2991,64.202 -20.0164,12.959 -43.464,17.473 -59.6675,11.584 z"
       id="path263"
       style="stroke-width:0.193463" />
    <path
       d="m 696.08559,11668.556 c -16.39433,-3.925 -21.5412,-6.281 -33.36036,-15.509 -16.58489,-12.762 -26.49771,-22.971 -33.93228,-34.752 -3.81267,-5.891 -24.78194,-29.057 -46.51392,-51.243 -31.83537,-32.592 -39.65107,-41.624 -40.60435,-47.121 -0.76249,-3.927 0.57193,-17.475 2.85939,-31.807 2.09714,-13.744 5.14709,-38.874 6.6723,-55.956 1.52497,-16.884 3.62189,-39.658 4.76573,-50.457 1.14362,-10.8 2.85939,-27.096 3.81246,-35.93 3.62211,-35.733 17.53817,-60.668 40.03264,-72.448 11.05645,-5.696 14.67833,-6.48 33.74149,-7.658 26.68828,-1.571 33.74171,0.392 36.98245,10.406 3.04997,9.621 1.33443,26.112 -3.24074,29.45 -1.90634,1.375 -8.19728,2.554 -14.10686,2.554 -19.06293,0 -29.54767,4.514 -43.84487,19.239 -16.39433,16.689 -20.01621,27.291 -19.63508,56.152 0.57192,26.702 4.76574,35.733 36.6011,79.713 15.63184,21.401 20.96928,33.966 24.01946,55.956 2.85939,20.616 10.48475,45.355 17.15681,55.563 2.66884,3.928 4.76574,8.247 4.76574,9.621 0,1.375 5.90958,9.031 13.34414,17.081 15.44104,16.689 28.59462,23.756 47.65755,25.916 16.01319,1.57 33.16979,-2.749 48.03913,-11.976 16.01274,-10.21 26.30692,-8.247 26.30692,5.105 0,4.516 -2.0969,7.265 -10.86587,14.332 -12.77222,10.407 -38.69802,25.131 -53.94849,30.432 -15.05992,5.302 -32.78843,6.675 -46.70449,3.337 z"
       id="path265"
       style="stroke-width:0.193463" />
    <path
       d="m 1650.1919,11606.318 c -9.913,-4.711 -16.3946,-10.406 -20.207,-18.062 -3.2406,-6.282 -2.478,-8.247 9.7221,-24.737 18.6819,-24.937 48.4201,-83.249 58.7141,-115.251 3.813,-11.78 8.5787,-25.523 10.4848,-30.235 2.0971,-4.909 4.3848,-13.351 4.9568,-19.046 0.762,-5.694 2.6685,-13.938 4.1938,-18.651 1.7157,-4.713 4.1938,-16.885 5.5282,-27.096 2.2872,-15.901 3.4313,-19.239 7.6253,-22.969 6.8625,-6.283 13.5345,-5.694 29.1661,2.355 10.6758,5.497 14.6788,9.031 20.0164,17.278 9.1501,13.743 9.722,17.67 6.1002,37.892 -4.3844,24.345 -12.5817,43.392 -29.1666,68.521 -7.8159,11.781 -15.8221,26.113 -17.7287,31.807 -1.9063,5.89 -5.1468,24.15 -7.4346,40.642 -3.8124,30.628 -6.1001,38.874 -14.4877,52.421 -5.1471,8.443 -23.0664,22.972 -33.1695,26.506 -10.1039,3.927 -24.5916,3.143 -34.3137,-1.375 z"
       id="path267"
       style="stroke-width:0.193463" />
    <path
       d="m 730.01786,11606.516 c -29.16654,-4.319 -53.94849,-41.821 -60.42999,-91.298 -3.62189,-26.505 -9.3409,-39.071 -32.59787,-71.663 -21.92254,-30.825 -25.92579,-39.266 -27.06964,-58.311 -1.33441,-19.242 1.14385,-28.862 10.29418,-39.66 9.53147,-11.583 19.25373,-15.903 36.21975,-15.903 12.20052,0 14.10685,0.59 17.34738,4.712 1.90635,2.749 4.76596,10.405 5.90959,17.277 6.67207,35.537 13.72549,62.238 22.87583,87.959 3.43132,9.227 7.43456,21.205 9.15011,26.506 1.71576,5.496 4.57516,12.172 6.4815,15.117 2.0969,2.749 6.86264,12.172 10.67531,20.615 3.81268,8.442 10.67532,20.616 14.86912,27.095 4.3846,6.479 11.24724,17.475 15.25049,24.541 4.00323,7.069 10.67531,16.493 14.86912,21.01 6.86286,7.461 7.62535,9.031 5.90957,13.743 -1.14361,3.533 -5.52822,7.263 -13.15357,11.386 -12.96278,7.266 -22.11312,9.032 -36.60088,6.874 z"
       id="path269"
       style="stroke-width:0.193463" />
    <path
       d="m 1875.1362,11294.929 c -4.3849,-1.768 -11.4381,-8.834 -14.4882,-14.725 -7.4346,-14.922 1.9063,-32.395 18.4912,-34.36 16.2035,-1.962 27.26,8.836 26.8789,26.113 0,10.996 -2.8592,15.708 -11.8192,20.419 -7.4344,3.926 -13.3439,4.713 -19.0627,2.553 z"
       id="path271"
       style="stroke-width:0.193463" />
    <path
       d="m 488.87004,11264.498 c -12.39109,-11.978 -11.43781,-30.433 1.90634,-39.859 13.34414,-9.422 28.59462,-3.729 35.45726,13.157 3.43131,8.834 3.43131,9.031 0,16.49 -4.76574,9.623 -11.62838,14.727 -22.11312,15.905 -7.62513,0.982 -9.15034,0.392 -15.25048,-5.693 z"
       id="path273"
       style="stroke-width:0.193463" />
    <path
       d="m 1737.5006,11244.275 c -3.2406,-1.964 -5.9097,-5.695 -7.0533,-10.407 -2.8596,-10.405 -2.6688,-11.779 2.6688,-17.081 3.4315,-3.73 6.6721,-4.909 13.1536,-4.909 12.5817,0 32.2163,-7.264 41.1763,-15.117 11.6284,-10.407 16.5847,-20.615 19.8254,-41.819 4.766,-30.628 -0.5722,-47.907 -24.7819,-80.499 -4.3847,-6.086 -9.5318,-12.173 -11.247,-13.743 -5.3378,-4.712 -18.11,-25.916 -19.8259,-33.377 -0.9531,-3.731 -4.003,-17.082 -6.6721,-29.451 -2.8591,-12.369 -6.4815,-26.898 -8.1969,-32.395 -5.3376,-17.081 -18.11,-38.679 -30.3103,-51.244 -15.6316,-16.098 -27.6414,-21.008 -51.2797,-21.204 -16.7755,-0.197 -17.5379,0 -35.2666,9.229 -9.9127,5.103 -19.0632,9.226 -20.3976,9.226 -1.1437,0 -4.7657,-2.355 -8.0063,-5.105 -6.4815,-5.694 -8.0067,-14.332 -3.0504,-18.456 7.6254,-6.478 45.3701,-26.505 58.1425,-30.824 22.3037,-7.656 37.745,-8.049 56.2358,-1.57 8.388,2.945 18.682,7.264 22.876,9.816 9.722,5.891 37.9353,34.163 85.4025,85.995 28.7852,31.217 37.5542,42.212 38.5072,47.121 0.5719,3.338 0.1899,13.351 -0.953,21.99 -0.9534,8.64 -2.6689,32.593 -3.8127,53.011 -4.5749,90.706 -8.1973,119.96 -16.2035,136.453 -5.9094,12.174 -21.5414,26.31 -33.9321,31.022 -13.9163,5.301 -49.7549,7.264 -56.9988,3.338 z"
       id="path275"
       style="stroke-width:0.193463" />
    <path
       d="m 637.75249,11237.206 c -5.71879,-0.786 -14.2972,-2.946 -19.06292,-4.711 -4.57517,-1.768 -12.77222,-4.713 -18.30067,-6.872 -23.82888,-8.836 -42.70125,-26.899 -52.42328,-50.261 -7.62536,-18.065 -8.95977,-39.661 -4.57517,-70.095 1.90634,-11.975 4.38437,-45.155 5.52822,-73.43 2.66884,-58.311 1.14385,-53.205 21.54142,-69.108 14.86912,-11.389 40.0322,-32.2 62.90803,-51.637 9.72203,-8.443 21.35063,-17.474 25.54444,-20.223 4.3846,-2.946 14.67855,-10.209 22.8756,-16.297 8.19728,-6.086 20.77893,-14.723 28.02269,-19.043 l 12.96302,-7.854 h 20.96926 20.9695 l 16.20353,10.209 c 16.77546,10.799 29.35711,23.756 31.64459,32.593 0.95328,4.32 0,6.479 -5.52823,12.172 -3.62188,3.73 -8.19705,6.872 -10.29395,6.872 -1.90634,0 -7.62536,-3.533 -12.58166,-7.658 -12.58165,-10.799 -26.68828,-15.902 -44.03566,-15.902 -16.20376,0 -28.40405,3.73 -42.89204,13.35 -22.30369,14.726 -31.83515,31.611 -40.223,71.86 -3.04995,15.117 -6.29071,32.002 -6.86263,37.304 -1.5252,11.779 -4.19381,17.671 -14.86912,33.573 -15.25048,22.186 -30.11982,50.262 -35.07612,65.379 -6.10015,18.26 -6.86264,45.55 -1.71578,57.723 8.00671,19.241 26.11658,34.163 50.89853,42.016 8.95955,2.749 17.72852,6.479 19.63486,8.247 4.00324,3.73 4.19403,13.744 0.18989,19.634 -3.24075,4.712 -11.05667,5.301 -31.45424,2.159 z"
       id="path277"
       style="stroke-width:0.193463" />
    <path
       d="m 1727.7785,11189.497 c -3.4314,-3.732 -3.6219,-4.124 -8.0063,-27.094 -8.3881,-42.801 -23.0663,-84.033 -49.7549,-139.595 -11.8192,-24.347 -23.0664,-43.194 -42.701,-70.878 -5.1474,-7.461 -9.5317,-15.117 -9.5317,-16.885 0,-10.602 18.6818,-21.598 36.6011,-21.598 21.9226,0.197 33.7414,7.266 48.0391,29.059 11.4379,17.473 18.8722,39.659 29.738,90.118 2.2878,10.799 11.2473,25.721 25.7353,43.784 13.5349,16.884 29.3571,44.568 30.8823,54.187 1.7156,10.211 -3.0502,31.218 -9.1503,40.642 -7.2443,11.388 -21.3506,19.242 -36.7917,20.42 -9.5317,0.785 -12.5816,0.392 -15.0599,-2.16 z"
       id="path279"
       style="stroke-width:0.193463" />
    <path
       d="m 653.00298,11186.354 c -20.20678,-6.477 -28.40384,-13.35 -34.12285,-28.86 -6.86264,-19.045 -4.57516,-34.359 10.29396,-65.577 8.19727,-17.277 15.05991,-29.058 23.63832,-41.033 11.24724,-15.512 17.34739,-32.2 19.63485,-52.815 0.95328,-10.406 4.00325,-26.703 6.86287,-36.519 9.72203,-35.144 32.59786,-56.546 60.62055,-56.741 13.15335,0 20.01599,2.945 31.45402,14.332 10.48453,10.209 10.29395,15.707 -1.90634,32.199 -16.58489,22.58 -57.18924,94.831 -57.18924,101.899 0,1.178 -1.71555,5.89 -3.62188,10.21 -2.0969,4.516 -5.33766,12.959 -7.43479,18.849 -2.09691,5.889 -6.48128,18.848 -9.9126,28.468 -3.24075,9.818 -8.00648,29.451 -10.48474,43.783 -5.71901,34.554 -8.76898,37.893 -27.83213,31.805 z"
       id="path281"
       style="stroke-width:0.193463" />
    <path
       d="m 1548.5856,10870.646 c -5.1471,-3.338 -8.3876,-10.209 -7.2441,-16.1 0.1898,-1.57 2.4784,-5.103 4.9569,-7.853 2.4778,-2.749 7.6249,-10.994 11.247,-18.258 12.9626,-25.329 8.5782,-48.692 -13.7255,-75.198 -8.3879,-9.816 -16.5849,-17.277 -23.4476,-21.205 -12.3911,-7.068 -38.5072,-13.94 -65.5771,-17.081 -23.4472,-2.749 -35.4569,-7.263 -54.1388,-20.222 -8.0067,-5.694 -17.5381,-11.781 -21.1598,-13.744 -23.4478,-12.565 -29.7384,-15.313 -41.367,-18.258 -7.6254,-1.768 -20.5882,-3.141 -31.2635,-3.141 -21.9225,0 -34.5042,4.907 -47.4672,18.455 -9.3409,9.816 -18.6816,29.057 -20.3973,42.211 -1.5251,11.585 -4.5752,14.53 -14.8692,14.53 -9.1503,0 -14.1066,-3.533 -14.4879,-10.407 -0.9531,-14.724 4.7657,-43.39 11.8191,-59.882 3.6219,-8.835 19.6348,-29.843 27.0694,-35.733 8.1971,-6.479 27.2603,-15.51 39.4608,-18.651 10.675,-2.947 15.2502,-2.947 32.4071,-1.179 31.6445,3.534 74.9179,6.086 102.1779,6.086 37.7447,0 40.4137,1.179 66.3398,29.058 68.6268,74.216 81.7802,89.333 97.9839,114.464 18.3002,27.881 20.9693,35.93 17.9191,56.152 -3.05,19.241 -9.5315,31.218 -25.5444,46.925 -14.2975,13.743 -20.3976,15.707 -30.6916,9.031 z"
       id="path283"
       style="stroke-width:0.193463" />
    <path
       d="m 832.76775,10862.99 c -8.57841,-7.853 -26.30715,-40.053 -32.02594,-58.508 -7.81591,-25.329 -8.00649,-37.894 -1.14385,-58.706 3.62189,-10.208 8.57841,-20.615 12.58166,-25.524 5.90957,-7.656 32.21649,-31.412 42.31989,-38.48 18.11009,-12.762 59.28614,-46.729 76.2524,-63.026 5.14686,-4.909 12.20028,-9.816 15.44104,-10.405 5.33765,-1.374 27.45077,1.571 52.99517,6.675 5.33768,0.982 20.20678,2.749 33.36038,3.927 13.1535,0.982 34.1229,2.749 46.7045,3.926 32.4073,2.75 39.8418,3.73 57.1893,8.247 16.9662,4.32 23.8288,8.05 38.5074,20.615 11.8191,10.406 16.966,21.009 20.0162,41.035 3.8127,25.326 -3.2408,42.016 -17.7285,42.016 -11.8192,0 -14.8694,-4.32 -16.9663,-24.149 -2.0969,-19.242 -4.0033,-23.955 -14.1066,-36.127 -10.2942,-12.173 -22.8759,-16.492 -52.6141,-17.671 -35.8386,-1.569 -54.7109,4.714 -83.8775,28.078 -15.63161,12.369 -29.54768,17.865 -58.52366,23.363 -45.56064,8.443 -73.20221,20.811 -91.69321,41.231 -13.34414,14.529 -16.58489,23.953 -16.58489,48.299 0,16.099 0.38113,17.867 8.19705,33.377 4.38459,9.031 8.00648,18.26 8.00648,20.616 0,4.123 -5.52822,10.405 -12.77221,14.331 -5.71902,2.946 -6.67207,2.751 -13.53471,-3.14 z"
       id="path285"
       style="stroke-width:0.193463" />
    <path
       d="m 1504.3594,10833.736 c -5.3377,-3.731 -18.1099,-11.781 -28.5946,-17.671 -10.4845,-6.087 -24.21,-14.137 -30.501,-18.259 -12.2003,-7.854 -27.26,-14.725 -61.9547,-28.272 -31.6451,-12.369 -65.3865,-21.598 -107.1345,-28.862 -15.8224,-2.946 -19.6351,-6.676 -17.7288,-17.081 3.6219,-20.42 17.7288,-39.268 32.7884,-43.782 4.0033,-1.375 13.3442,-1.965 20.5882,-1.375 24.9728,1.57 49.7549,12.172 82.5431,34.555 19.2537,13.35 32.4071,17.67 67.6738,22.774 28.0227,3.927 43.2734,9.228 55.2831,19.437 27.2599,22.776 33.1696,47.711 17.3474,71.467 -11.2473,16.493 -16.0132,17.67 -30.3104,7.069 z"
       id="path287"
       style="stroke-width:0.193463" />
    <path
       d="m 874.89708,10830.595 c -11.43781,-12.762 -15.25048,-26.506 -12.00973,-43.784 2.09691,-10.995 3.62188,-14.137 12.77222,-24.543 16.58489,-18.847 44.60759,-30.824 83.68695,-36.125 24.40059,-3.142 44.22618,-10.994 57.76088,-22.383 11.8192,-10.013 25.5447,-20.026 27.4508,-20.026 0.9533,0 7.4348,-2.552 14.6786,-5.89 11.4378,-5.104 15.2504,-5.889 30.8823,-5.889 21.1598,0 29.5477,3.337 40.0324,15.313 7.244,8.246 12.9628,23.561 12.9628,34.752 0,11.191 -5.7188,14.332 -38.3166,20.811 -47.8484,9.424 -61.955,13.352 -96.0779,26.703 -33.16974,13.154 -57.95169,24.934 -78.15869,37.106 -6.29071,3.927 -14.86912,9.033 -19.06293,11.388 -4.19381,2.554 -12.00973,7.265 -17.34738,10.602 -11.62859,7.461 -14.10663,7.658 -19.25372,1.965 z"
       id="path289"
       style="stroke-width:0.193463" />
    <path
       d="m 1664.2986,10821.366 c -7.0535,-4.515 -12.7725,-17.474 -11.0567,-25.327 2.8596,-11.977 17.7287,-21.598 29.3571,-19.046 5.9096,1.375 16.0129,11.585 18.1099,18.654 5.9095,19.437 -18.6819,36.911 -36.4103,25.719 z"
       id="path291"
       style="stroke-width:0.193463" />
    <path
       d="m 705.23591,10794.861 c -11.81916,-5.498 -18.11009,-21.991 -12.963,-33.377 5.90958,-12.762 21.54119,-18.456 33.36035,-12.37 6.29071,3.338 13.34415,14.528 13.34415,21.401 0,18.063 -18.49123,31.413 -33.7415,24.346 z"
       id="path293"
       style="stroke-width:0.193463" />
    <path
       d="m 1189.4377,10620.711 c -7.8159,-5.106 -12.7723,-15.903 -11.2473,-25.132 1.525,-10.405 13.9161,-21.793 23.4476,-21.793 16.3941,0 28.5946,13.154 26.1163,28.468 -1.7157,10.406 -4.1938,14.334 -12.5816,18.849 -9.1501,4.712 -18.11,4.712 -25.735,-0.392 z"
       id="path295"
       style="stroke-width:0.193463" />
    <path
       d="m 2045.941,11854.881 c -9.5315,-10.602 -6.291,-20.617 20.7787,-63.81 4.3846,-7.068 13.5346,-23.561 20.0162,-36.912 10.6753,-21.399 11.8192,-24.738 10.2939,-30.432 -1.525,-5.3 -2.8591,-6.281 -8.7687,-6.871 -6.4815,-0.588 -6.8628,-0.197 -9.3411,7.854 -2.0968,6.675 -4.7658,9.817 -12.2003,14.724 -11.0567,7.461 -12.01,9.621 -12.2006,24.543 -0.1898,16.1 -4.5749,25.72 -15.8221,34.948 -10.8659,8.836 -17.3474,10.601 -35.4572,9.423 -22.1134,-1.374 -39.4608,-13.546 -44.6076,-31.413 -5.7191,-20.419 -1.3345,-37.304 13.3441,-53.011 11.2472,-12.174 23.4478,-11.781 36.22,0.983 9.5314,9.62 7.6249,22.382 -5.5288,33.572 -4.9563,4.319 -7.6248,5.106 -14.4877,4.711 -10.8659,-0.784 -14.2975,3.338 -9.5312,10.997 8.0062,12.564 34.6947,10.799 47.4667,-2.946 9.3411,-10.211 10.8661,-18.455 5.5282,-31.414 -2.2872,-5.497 -4.0032,-12.762 -3.6218,-16.1 0.5719,-6.086 0.7625,-6.281 10.6753,-6.478 29.1665,-0.393 16.0127,-20.42 -29.1666,-43.979 -28.9757,-15.315 -35.0761,-20.026 -40.0324,-31.415 -3.8125,-8.834 -2.8591,-13.742 3.0504,-13.742 2.0967,0 23.0662,10.404 46.1326,22.969 63.6705,34.36 85.7836,45.747 89.7868,45.747 1.9064,0 6.6721,-3.534 10.4846,-7.853 7.8159,-8.835 12.0097,-9.816 16.204,-3.534 4.3844,6.48 3.8124,15.314 -1.9066,26.308 -2.8596,5.303 -8.0065,15.904 -11.8192,23.365 -3.6216,7.657 -7.8159,15.118 -8.9597,16.689 -1.3342,1.57 -5.7188,10.405 -9.722,19.634 -4.0031,9.228 -10.1035,20.811 -13.5349,25.719 -3.4311,5.106 -12.0093,19.633 -18.8722,32.395 -6.8629,12.959 -14.1069,25.131 -16.0128,27.094 -3.4318,3.536 -3.6223,3.536 -8.388,-1.765 z"
       id="path297"
       style="stroke-width:0.193463" />
    <path
       d="m 284.89525,11729.226 c -3.43133,-1.964 -5.90959,-5.892 -7.81592,-12.173 -1.52498,-5.303 -11.05645,-29.451 -21.15984,-53.993 -10.10339,-24.543 -18.30066,-45.55 -18.30066,-46.533 0,-0.98 -2.09691,-6.478 -4.76573,-12.368 -5.14687,-11.191 -5.90959,-19.241 -2.66883,-25.328 1.71576,-3.337 0.57192,-6.086 -5.90958,-16.491 -4.38438,-6.872 -9.15012,-12.959 -10.67532,-13.548 -11.05645,-4.32 -30.31018,4.711 -39.26993,18.063 -8.19697,12.172 -9.15003,26.702 -3.62189,49.672 4.76573,19.635 15.63161,37.109 32.979,53.602 6.29094,5.888 10.86611,11.583 10.10361,12.762 -3.81267,6.477 -21.54142,-3.142 -40.60435,-22.188 -31.64472,-31.414 -40.22313,-98.757 -15.44118,-121.924 10.48466,-9.62 18.30058,-12.762 32.59778,-12.762 8.19728,0 13.53493,-0.981 16.58489,-3.141 4.00325,-2.945 4.19403,-4.32 3.05019,-13.549 -0.95329,-8.049 -0.57193,-10.602 1.90633,-12.762 5.52823,-4.711 16.01297,2.75 22.11312,15.512 5.52823,11.977 9.72203,14.332 19.06293,11.977 3.62211,-0.983 14.29743,-3.533 23.63833,-5.891 9.53146,-2.159 21.92254,-5.3 27.64133,-6.676 65.95822,-17.08 76.44296,-18.652 87.11828,-11.975 11.05666,6.674 9.72225,13.743 -3.05018,15.706 -3.81245,0.786 -15.44105,3.338 -25.92558,5.892 -10.48474,2.551 -31.45423,7.459 -46.70472,10.797 -43.46374,9.621 -59.66728,13.94 -64.24244,16.885 -2.66882,1.57 -4.76573,6.087 -6.10015,12.565 -2.85939,13.548 -2.85939,14.137 2.8594,22.776 2.85962,4.123 7.05343,13.351 9.3409,20.419 2.47826,7.068 7.05342,19.438 10.48475,27.487 3.43131,8.049 7.24398,19.633 8.76897,25.524 3.24075,13.742 9.91282,19.24 15.63183,13.349 1.52499,-1.57 2.28748,-9.618 2.28748,-23.166 0,-21.793 2.66883,-49.477 5.90957,-60.276 2.8594,-9.424 9.72204,-13.154 21.5412,-11.584 19.06316,2.552 23.0664,4.516 35.64805,18.063 17.9193,18.847 36.02918,28.47 66.53014,35.34 21.92232,4.908 26.68806,12.566 11.81894,19.242 -3.81269,1.57 -19.06316,7.461 -33.7415,12.763 -36.79189,13.154 -69.77088,26.505 -86.73714,35.142 l -14.29719,7.266 -0.95328,13.744 c -0.95306,12.957 -1.14363,13.743 -5.71879,14.135 -2.66884,0.392 -7.05343,-0.786 -9.91282,-2.355 z m 72.63028,-74.806 c 10.10339,-3.926 20.20701,-8.245 22.68504,-9.815 6.29071,-4.32 4.76573,-10.799 -3.43132,-14.922 -28.59462,-14.725 -36.02918,-17.474 -39.4605,-15.511 -6.67206,3.533 -7.81591,6.872 -9.3409,24.345 -1.90634,25.916 0.1899,27.095 29.54768,15.903 z"
       id="path299"
       style="stroke-width:0.193463" />
    <path
       d="m 2144.3065,11664.041 c -8.0067,-3.928 -13.3444,-13.154 -15.8224,-27.289 -4.3849,-25.721 -11.0565,-40.054 -18.4912,-40.054 -0.9532,0 -8.3879,5.301 -16.5849,11.78 -8.1973,6.48 -16.9661,12.369 -19.4443,13.155 -6.291,1.57 -12.3911,-3.338 -22.1132,-17.671 l -7.8159,-11.386 2.4783,-12.174 c 1.9066,-9.817 1.9066,-14.333 0,-21.989 -3.4316,-14.333 -9.9126,-26.506 -18.8726,-35.342 -7.4345,-7.264 -15.2502,-19.828 -15.2502,-24.346 0,-4.515 9.9127,-4.318 25.163,0.59 33.17,10.602 106.1815,31.61 117.4285,33.77 6.8628,1.375 12.01,-2.16 16.7755,-11.387 3.2408,-6.675 10.1033,-7.265 15.06,-1.572 4.7658,5.498 4.1938,16.885 -1.9063,37.305 -2.6691,9.227 -7.8161,27.684 -11.4378,41.23 -3.4318,13.548 -7.6256,28.076 -9.1505,32.593 -1.5247,4.319 -3.8125,12.761 -4.9563,18.847 -1.3343,6.087 -3.8125,12.37 -5.5285,13.94 -3.0497,2.75 -3.8125,2.75 -9.5312,0 z m 8.0065,-72.448 c 12.3906,-27.093 8.9595,-33.572 -23.0662,-42.212 -11.2477,-2.944 -30.3104,-8.245 -42.1296,-11.387 -11.8191,-3.338 -22.6851,-5.497 -24.2102,-4.712 -4.3844,1.57 -3.4311,8.639 2.6691,22.774 7.0531,16.1 13.1533,21.008 21.9225,17.082 8.9593,-3.731 19.6346,-4.713 25.9255,-1.963 5.5283,2.355 12.5818,9.62 23.4476,24.344 2.8596,3.928 6.4815,7.069 7.8159,7.069 1.5252,0 4.9565,-4.909 7.6254,-10.995 z"
       id="path301"
       style="stroke-width:0.193463" />
    <path
       d="m 2003.6209,11574.513 c -10.294,-9.034 -5.147,-23.756 9.1505,-26.113 5.5282,-0.982 7.8155,-0.198 13.5345,5.103 8.3878,7.461 9.3411,14.922 2.6691,21.205 -6.291,6.087 -18.4913,5.891 -25.3541,-0.195 z"
       id="path303"
       style="stroke-width:0.193463" />
    <path
       d="m 2137.253,11227.194 c -12.7724,-1.375 -18.3006,-3.143 -34.3136,-11.192 -20.3973,-10.405 -40.223,-26.701 -42.1293,-34.555 -1.7156,-7.263 8.7692,-24.15 24.9728,-39.857 16.7754,-16.688 23.638,-20.419 43.6542,-24.739 21.1601,-4.515 32.2167,-3.925 52.8046,2.357 24.4008,7.658 33.3605,12.762 44.9891,25.72 10.4846,11.584 12.772,19.045 7.2436,23.757 -1.7153,1.374 -7.053,8.637 -11.8192,16.1 -10.8659,16.688 -20.9689,26.112 -37.5538,34.554 -15.0602,7.855 -27.26,9.818 -47.8484,7.855 z m 37.173,-37.305 c 10.4848,-4.516 22.8759,-16.689 22.8759,-22.185 0,-5.694 -8.388,-13.548 -20.9697,-19.439 -8.0063,-3.925 -13.5344,-5.103 -23.6383,-5.103 -16.0128,0 -26.3067,4.514 -38.6978,16.883 -7.244,7.07 -8.3876,9.229 -7.8157,14.727 0.5717,5.693 1.9061,7.264 9.1501,10.993 20.9693,10.604 41.1763,12.175 59.0955,4.124 z"
       id="path305"
       style="stroke-width:0.193463" />
    <path
       d="m 230.56562,11213.645 c -21.35062,-2.551 -46.13258,-15.705 -65.76757,-34.947 -9.53146,-9.032 -9.53146,-15.903 -0.38135,-29.843 14.86926,-22.775 25.92571,-31.217 53.75784,-41.623 14.67856,-5.498 18.87259,-6.284 35.64805,-6.086 16.3941,0.196 20.96927,0.981 32.02593,5.694 25.16309,10.601 48.99197,29.646 48.99197,39.07 0,2.945 -3.24075,10.406 -7.43456,16.493 -16.20376,24.148 -45.56065,47.906 -62.52689,50.261 -17.91931,2.553 -20.77871,2.749 -34.31342,0.981 z m 42.31989,-39.461 c 20.20701,-10.016 23.63833,-20.223 11.05667,-32.201 -12.963,-12.37 -42.32011,-16.688 -57.57036,-8.637 -8.95977,4.711 -28.78542,22.97 -28.78542,26.503 0,7.657 19.82565,18.849 37.17303,21.204 11.4378,1.572 26.87885,-1.176 38.12608,-6.869 z"
       id="path307"
       style="stroke-width:0.193463" />
    <path
       d="m 442.35611,10846.89 c -8.5784,-2.16 -17.53795,-8.246 -27.45077,-18.652 -4.76573,-4.909 -9.53147,-9.032 -10.67532,-9.032 -1.14384,0 -5.52822,3.534 -9.91282,7.854 -8.76897,9.031 -12.2003,9.62 -16.39432,3.535 -4.19381,-5.89 -3.81245,-12.37 1.14384,-24.545 6.29094,-15.901 11.24724,-11.582 -89.02439,-78.139 -17.34738,-11.586 -26.68828,-21.402 -28.59462,-30.237 -2.66882,-13.154 5.52823,-13.351 23.25697,-0.785 20.01621,14.137 21.73175,15.313 32.979,22.579 5.71901,3.73 22.87583,15.117 38.12608,25.523 33.74171,22.776 35.45748,23.756 40.22321,22.186 4.76574,-1.57 21.15984,-34.947 19.44429,-39.856 -1.90634,-6.088 -6.86264,-8.246 -17.72873,-8.246 -8.95955,0 -12.2003,-0.983 -18.68181,-5.89 -5.14687,-3.73 -8.38762,-8.05 -9.72203,-12.566 -3.24075,-12.173 0.1899,-18.652 14.48777,-28.861 4.38459,-3.141 10.67531,-9.817 13.91607,-14.529 15.0599,-22.579 36.98245,-17.671 44.79837,9.818 4.00324,14.725 5.71879,16.687 13.34392,16.687 8.57841,0 15.05992,-8.05 13.15357,-16.492 -2.47803,-12.957 -16.20354,-30.236 -35.26668,-44.568 -20.96928,-15.903 -51.85137,-44.569 -55.09212,-50.851 -4.57516,-9.228 -6.67207,-20.812 -4.00324,-22.382 4.76573,-3.142 10.86588,1.57 74.34583,55.367 26.87908,22.774 45.942,35.731 49.56389,33.768 4.57516,-2.356 8.95977,-8.244 10.10362,-13.154 1.71554,-6.676 -3.0502,-11.78 -12.2003,-12.958 -6.29093,-0.785 -9.72226,-2.945 -15.25048,-9.03 -8.00649,-8.639 -8.95976,-14.531 -4.3846,-23.758 5.33766,-10.602 11.81916,-14.135 25.73523,-13.743 16.58489,0.588 16.3941,0.588 20.96926,-4.32 4.95653,-5.498 4.95653,-16.1 0,-21.204 -4.38437,-4.517 -6.4815,-4.712 -21.16006,-1.57 -14.86912,3.141 -21.92232,0 -26.87884,-11.584 -3.05019,-7.266 -3.24075,-9.621 -1.52498,-15.314 2.85939,-8.639 10.67531,-15.316 21.73175,-18.653 4.95653,-1.375 10.48475,-4.516 12.39109,-7.068 4.76573,-6.087 6.4815,-24.738 3.81268,-38.089 -6.48151,-31.022 -1.71577,-34.555 18.30043,-13.548 7.43457,7.658 19.44429,20.223 26.87885,28.076 7.43479,7.658 15.82241,17.279 18.6818,21.401 3.62211,5.104 6.67207,7.264 9.91283,7.264 15.05991,0 31.83537,-21.597 22.68504,-29.45 -2.09691,-1.768 -4.57495,-1.178 -12.00973,2.945 -17.91931,10.013 -29.73824,3.141 -25.1633,-14.528 2.85962,-11.388 11.24723,-17.867 22.87583,-17.867 11.43781,0 18.30044,2.551 25.54443,9.424 7.81592,7.46 12.58166,19.24 12.58166,31.218 0,13.154 -1.71577,17.277 -12.3911,30.824 -10.10338,12.958 -10.67531,19.045 -2.47803,25.328 8.00649,6.086 8.95954,5.498 58.1423,-42.016 13.7255,-13.352 16.01297,-20.223 11.24723,-32.199 -1.71576,-4.123 -12.96301,-22.579 -24.78193,-41.232 -24.21026,-37.697 -27.83214,-44.96 -27.83214,-56.74 0,-10.209 2.09691,-13.547 7.81592,-12.566 4.9563,0.589 9.15033,6.872 27.45078,40.052 6.29071,11.388 16.96602,28.47 23.63808,37.893 6.67208,9.229 14.67856,21.596 17.72875,27.292 9.53146,17.082 16.20353,20.615 29.73824,15.706 5.71901,-2.16 6.67208,-2.16 9.15034,1.376 4.9563,6.871 3.24075,13.938 -5.90959,24.54 -6.48127,7.658 -8.57841,11.585 -8.57841,16.493 0,3.73 -1.33441,7.854 -3.04995,9.227 -2.66884,2.16 -3.62189,1.963 -6.29094,-1.373 -18.10988,-22.971 -20.20678,-23.758 -26.11636,-10.407 -4.1938,9.818 -12.77221,17.474 -19.63485,17.474 -6.67208,0 -17.34739,8.247 -50.51718,39.072 -7.43456,7.067 -20.01621,17.866 -27.83213,24.346 -7.81569,6.478 -20.7787,17.67 -28.5944,24.934 -7.81613,7.264 -21.16005,19.045 -29.54789,25.916 -8.38762,6.871 -16.96603,15.707 -18.87237,19.437 -3.43131,6.676 -3.43131,7.462 -0.76249,16.689 1.71555,5.302 3.62189,14.921 4.38438,21.401 0.76249,6.48 2.47826,16.296 3.81267,21.597 4.57517,18.062 4.9563,25.326 2.09691,40.445 -10.67532,52.813 -57.76117,99.149 -91.88401,90.315 z m 26.11636,-37.893 c 10.48474,-3.142 21.16006,-13.154 32.02594,-30.039 10.67531,-16.297 14.86934,-28.273 17.53818,-51.047 2.85939,-24.936 0.95305,-34.557 -9.15034,-46.139 -12.2003,-13.941 -17.34738,-12.959 -20.39735,4.319 -2.28769,12.565 -19.82564,25.13 -35.26669,25.13 -10.48474,0 -15.25047,4.711 -16.39432,16.69 -1.33441,11.19 -7.43456,34.947 -12.58166,48.493 -4.76572,11.978 -4.57516,17.476 0.57193,24.15 9.15033,11.977 23.44753,14.725 43.65431,8.443 z m 82.54311,-209.491 c 8.76898,-8.247 9.3409,-12.566 4.00324,-25.72 -6.29071,-15.511 -6.10015,-25.524 0.95328,-40.838 3.43132,-7.461 5.71879,-15.706 5.71879,-20.42 0,-6.674 -1.33441,-9.226 -10.86588,-19.437 -5.90958,-6.282 -11.81916,-11.583 -13.15357,-11.583 -7.81569,0 -9.53147,23.561 -2.85939,37.108 9.3409,18.455 9.15032,44.371 -0.7625,65.575 -5.71901,12.762 -5.90958,15.905 -0.95328,21.008 4.3846,4.516 8.38784,3.339 17.91931,-5.693 z m 41.74819,-37.501 c 7.62513,-8.834 6.67208,-17.669 -2.28769,-22.383 -6.29072,-3.336 -12.00973,-0.783 -17.53795,7.856 -11.24724,17.668 5.71901,30.432 19.82564,14.527 z"
       id="path309"
       style="stroke-width:0.193463" />
    <path
       d="m 1995.4241,10814.298 c -3.0505,-2.75 -9.7226,-10.994 -14.6789,-18.259 -5.147,-7.265 -9.9127,-13.548 -10.6753,-13.743 -0.9533,-0.394 -4.9563,-5.695 -8.9595,-11.781 -4.0035,-6.284 -14.488,-20.026 -23.0661,-30.825 -8.5788,-10.799 -21.1604,-27.291 -28.0228,-36.715 -14.8693,-20.811 -32.0261,-34.947 -41.9388,-34.947 -5.3376,0 -8.1973,1.569 -13.3443,7.461 -8.3876,9.226 -10.1034,13.744 -10.1034,27.682 0,19.241 11.8192,38.482 32.979,53.797 14.2976,10.404 27.0696,15.902 47.2766,20.42 15.2503,3.336 20.2066,6.871 14.8689,10.601 -1.5247,1.177 -12.5812,1.571 -24.5909,1.374 l -21.923,-0.785 -20.016,-10.602 c -21.7318,-11.584 -36.4105,-24.934 -48.9921,-44.765 -8.7688,-13.941 -13.9159,-37.501 -10.4848,-48.888 3.241,-10.994 8.7694,-17.67 19.6353,-23.169 4.9563,-2.747 10.1031,-6.674 11.247,-9.031 3.6219,-6.674 -1.1439,-14.92 -12.2003,-21.596 -10.294,-6.086 -16.7754,-6.872 -25.1633,-3.731 -6.2909,2.554 -9.3409,0.198 -7.4343,-5.693 0.5719,-2.357 5.5282,-9.226 10.675,-15.314 9.7221,-11.584 11.8192,-18.849 6.1004,-21.793 -1.9066,-0.982 -8.9599,-2.358 -15.8228,-2.946 -20.7785,-1.963 -31.835,-6.478 -43.0822,-17.474 -5.5282,-5.301 -11.6283,-13.547 -13.7255,-18.063 -4.9563,-10.602 -6.4814,-11.779 -20.2068,-15.903 -9.3411,-2.749 -12.3911,-2.945 -19.4445,-0.982 -4.7657,1.375 -8.9593,3.338 -9.5312,4.123 -1.3346,2.357 -7.8162,2.357 -9.1506,0 -1.5247,-2.552 2.4782,-13.351 9.913,-26.308 7.8157,-13.94 9.7221,-22.972 5.3378,-26.702 -2.6691,-2.355 -5.1472,-1.963 -16.9664,2.945 -11.6283,4.908 -16.3941,5.694 -30.882,5.694 -20.5879,0 -28.7852,-3.534 -46.1325,-19.437 -26.4978,-24.937 -32.026,-68.129 -8.5784,-67.933 4.7657,0 9.5314,1.963 14.4879,5.89 9.9125,7.657 16.5847,7.657 22.8756,-0.196 4.0031,-4.909 4.9563,-8.05 4.9563,-17.473 0,-15.316 6.1001,-19.831 20.9695,-15.708 6.4813,1.768 8.3876,3.534 10.6753,9.424 1.5248,3.926 4.3844,11.19 6.2909,16.1 1.906,4.908 6.6717,17.473 10.6754,27.88 6.8626,19.044 12.7722,27.095 19.6346,27.095 8.1973,0 36.0294,-40.643 37.9357,-55.368 1.3344,-8.835 -0.9532,-12.173 -11.6286,-17.67 -4.3843,-2.16 -15.4408,-10.013 -24.9727,-17.277 -23.6381,-18.457 -39.0792,-26.311 -49.1825,-24.935 -4.194,0.589 -9.9131,2.747 -12.7722,4.907 -8.3881,6.479 -12.3911,6.284 -12.963,-0.785 -0.3815,-4.908 0.7625,-7.263 6.4814,-12.564 13.9164,-12.37 24.9728,-14.53 43.6544,-7.856 13.7254,4.91 23.4475,10.8 37.173,22.383 12.3911,10.799 30.3103,20.813 36.6013,20.813 2.6687,0 9.722,-1.768 16.0128,-3.928 12.963,-4.711 19.0631,-3.926 21.9225,2.75 1.9064,4.121 0.5719,7.459 -10.8659,26.899 -12.2005,21.203 -17.3474,28.467 -29.9292,44.174 -7.0535,8.639 -29.929,55.367 -29.929,61.06 0,5.106 7.6253,10.996 11.8191,9.425 1.5252,-0.588 4.5754,-4.516 6.8628,-8.442 5.3377,-9.818 16.9661,-21.793 22.4943,-23.168 11.2473,-2.945 20.3978,4.319 26.1166,20.025 1.7156,5.301 5.719,12.762 8.7689,16.493 4.7658,5.695 6.2908,6.479 9.1504,4.713 4.5752,-2.946 4.5752,-25.918 0,-37.697 -6.2907,-16.1 -3.0502,-20.027 15.8224,-20.027 22.4942,0 25.735,7.265 18.6818,41.035 -7.244,33.966 -27.6418,45.55 -52.4235,29.646 -11.4378,-7.264 -16.5847,-7.264 -17.3474,0.59 -0.7625,5.89 4.3846,14.529 13.9158,23.363 7.0535,6.676 22.4945,10.21 37.7453,8.835 13.9158,-1.374 29.7382,-11.387 40.0323,-25.524 12.3912,-17.473 43.8449,-50.85 50.3265,-53.599 3.4311,-1.571 8.7691,-2.747 12.0097,-2.747 4.9563,0 5.7187,0.783 5.7187,5.496 0,3.73 -2.8596,8.442 -9.722,15.707 -5.3375,5.891 -15.0599,17.277 -21.3508,25.524 -6.2907,8.443 -16.2035,20.418 -22.1132,27.094 -20.9692,23.56 -38.3166,47.121 -38.3166,52.029 0,4.123 12.5819,19.242 20.9693,25.327 9.5319,7.07 14.1068,3.731 61.1927,-44.567 24.0192,-24.543 46.5139,-46.336 49.945,-48.104 8.1973,-4.711 16.013,-4.515 18.4913,0.197 1.7155,3.338 -1.9064,7.853 -27.2605,34.948 -43.6543,46.139 -62.3361,67.737 -63.6701,72.84 -1.5252,6.48 4.5749,21.401 12.7717,30.63 3.813,4.515 12.2006,15.117 18.4913,23.756 6.4816,8.638 15.4411,19.634 19.8259,24.541 4.5749,4.909 12.5812,15.511 17.9193,23.955 5.1468,8.246 16.966,24.541 26.307,36.125 11.8191,14.922 16.5846,22.579 16.5846,26.504 0,9.034 -11.6284,10.603 -20.7784,2.75 z m -329.0287,-351.05 c 2.6687,-2.16 3.05,-4.122 2.0967,-9.423 -1.9059,-9.229 -10.8659,-27.684 -14.8689,-30.039 -4.7657,-2.946 -23.6383,3.73 -27.6414,9.816 -2.8597,4.516 -2.8597,5.498 0,11.584 6.8627,14.725 30.6912,25.328 40.4136,18.062 z"
       id="path311"
       style="stroke-width:0.193463" />
    <path
       d="m 1999.0459,10750.685 c -26.4975,-10.797 -36.6013,-26.505 -33.7417,-52.618 1.7158,-16.295 20.2068,-30.432 36.22,-27.292 12.9625,2.554 22.3037,14.138 22.3037,28.076 0,5.301 -1.9064,10.21 -6.6721,17.081 -3.6219,5.301 -6.6721,11.389 -6.6721,13.352 0,6.087 8.5784,10.014 19.0632,8.834 20.5879,-2.55 37.9352,-19.043 38.3166,-36.516 0.5719,-33.379 -4.5752,-42.213 -31.6445,-53.405 -10.2945,-4.32 -14.1069,-4.711 -39.0797,-4.516 -24.0192,0 -30.1193,0.786 -46.3231,5.498 -18.8721,5.301 -26.1164,5.301 -26.1164,0 0,-4.712 26.6883,-16.099 48.0392,-20.615 15.8222,-3.338 24.5911,-3.926 47.0854,-3.534 l 27.8323,0.785 16.3943,8.247 c 14.1065,6.872 17.7286,9.815 24.782,19.436 l 8.3876,11.192 -0.5719,17.865 c -0.5719,19.635 -4.3846,30.826 -15.441,44.571 -6.2908,7.853 -28.4038,22.381 -38.5073,25.326 -10.4849,3.141 -34.1232,2.158 -43.6545,-1.767 z"
       id="path313"
       style="stroke-width:0.193463" />
    <path
       d="m 922.36406,10412.397 c -3.81267,-3.927 -2.47826,-11.387 3.05018,-17.276 5.52823,-5.695 10.29397,-7.266 32.78844,-11.586 22.68503,-4.515 26.68828,-8.834 18.30043,-20.418 -8.00648,-10.799 -10.67531,-19.83 -10.67531,-36.125 0,-17.082 3.81268,-27.684 13.91607,-38.09 9.3409,-9.62 17.15681,-12.174 35.07613,-11.977 14.6785,0.392 16.013,0 18.6817,-4.319 2.6689,-4.32 2.8595,-5.497 0.1899,-11.781 -3.4312,-8.638 -8.7689,-10.994 -24.5914,-10.994 -15.05958,0 -24.20991,4.32 -36.79156,17.278 -16.39433,16.492 -20.58813,29.253 -22.87561,68.522 -1.14385,21.4 -4.00324,30.039 -9.3409,30.039 -4.95652,0 -7.24399,-8.639 -8.19728,-31.807 -1.33441,-32.787 1.90635,-54.778 11.6286,-77.945 6.10014,-14.333 10.10339,-20.812 17.72852,-28.665 13.53493,-13.548 25.73522,-20.223 38.88873,-20.616 16.7755,-0.785 18.11,-0.393 30.1197,8.049 13.7255,9.229 14.4879,9.032 29.7384,-7.066 12.7722,-13.352 19.4443,-16.69 33.3604,-16.887 16.0127,-0.195 29.5476,8.05 36.6011,22.188 4.1938,8.245 4.1938,14.527 0.5717,40.443 -0.9531,7.069 -0.1899,10.407 4.5751,19.635 7.244,13.939 8.9595,26.112 6.1002,40.838 -2.0969,10.405 -3.4313,12.762 -13.5348,22.381 -8.7689,8.639 -10.8658,11.389 -8.9595,13.352 3.05,3.141 13.7254,2.945 24.4006,-0.393 4.7657,-1.374 13.5348,-3.338 19.6351,-3.927 8.3876,-1.177 12.7722,-2.944 17.1566,-7.067 l 6.1002,-5.498 0.5719,-24.543 c 0.3813,-13.35 -0.1899,-38.088 -1.3344,-54.778 -1.3345,-21.007 -1.1437,-32.787 0.1899,-38.481 2.0969,-8.442 9.722,-18.062 14.2972,-18.062 4.9565,0 8.197,12.761 8.197,32.787 0,19.633 3.4313,93.261 4.9565,107.788 0.5719,4.518 2.097,9.621 3.4313,11.584 3.0502,4.32 31.8354,9.426 75.1085,12.959 34.123,2.749 35.8385,2.356 37.3635,-8.834 2.6688,-18.064 2.8596,-42.017 0.3814,-45.355 -2.4781,-3.534 -3.2408,-3.338 -17.9194,4.32 -20.2068,10.799 -33.3604,13.744 -46.7045,10.602 -20.9692,-4.712 -28.0227,-13.743 -28.0227,-35.536 0,-16.297 3.6221,-24.346 13.1536,-29.256 16.2035,-8.639 31.6448,-2.945 40.4135,14.922 9.7224,19.831 14.2975,21.008 28.5947,7.069 14.2974,-13.745 18.8726,-22.972 20.7789,-42.212 1.3345,-15.117 1.9062,-16.493 8.3876,-22.578 13.9163,-13.352 18.1102,-7.266 14.6784,21.596 -1.1434,10.013 -2.4779,26.505 -3.0498,36.715 -0.5719,10.209 -2.4784,32.59 -4.0032,49.477 -3.4316,38.283 -2.2877,42.998 11.0567,46.334 11.6283,3.141 14.1063,6.284 10.2939,13.94 -5.719,11.191 -10.2939,11.584 -65.0052,6.088 -69.0081,-6.872 -88.4526,-8.443 -93.0276,-7.069 -3.4313,0.785 -7.0534,4.515 -11.0567,10.994 -3.2407,5.498 -7.0532,9.817 -8.3876,9.817 -4.7659,0 -8.5784,-8.442 -8.5784,-18.848 0,-14.725 -3.4315,-17.082 -15.4413,-10.014 -9.9125,5.694 -16.0129,6.481 -26.3068,3.339 -6.1002,-1.768 -34.3135,2.16 -69.7709,9.621 -12.2003,2.748 -79.30247,15.117 -90.54965,16.884 -4.76552,0.785 -19.06294,3.534 -32.02594,6.086 -26.68807,5.301 -31.07266,5.694 -34.31341,2.356 z m 161.65494,-52.225 c 18.8723,-4.516 19.0628,-7.854 0.953,-18.456 -7.244,-4.122 -17.5379,-11.976 -22.4944,-17.277 -12.0098,-12.959 -15.4411,-12.762 -19.2538,0.59 -1.525,5.496 -3.4313,14.725 -4.1938,20.221 -0.953,8.836 -0.5719,10.799 2.8594,14.332 5.1471,5.301 21.5414,5.498 42.1296,0.59 z m -66.9116,-16.885 c 6.1002,-6.674 7.6251,-21.401 3.0502,-26.702 -7.4346,-8.443 -24.59133,-6.675 -29.73842,3.141 -2.09691,4.124 -2.09691,5.695 0.57193,10.209 3.05018,5.106 17.53789,18.064 20.39759,18.064 0.7624,0 3.4313,-2.16 5.7187,-4.712 z m 102.3688,-33.77 c 6.2907,-4.319 8.0064,-15.313 3.4313,-20.615 -3.6221,-4.124 -4.1938,-4.124 -24.0195,-0.588 -5.9095,0.981 -7.8158,0.392 -11.819,-3.928 -4.0033,-3.928 -4.9564,-6.871 -4.9564,-14.725 0,-13.547 6.1002,-20.812 18.491,-22.382 9.9128,-1.179 13.9161,-4.909 13.9161,-13.548 0,-9.227 -7.4346,-15.314 -19.0631,-15.314 -11.6284,0 -18.6816,3.338 -25.1632,12.173 -9.9128,13.548 -12.9628,22.187 -12.9628,37.696 0,13.548 0.5719,15.315 6.2908,22.971 7.0532,9.424 21.9225,18.85 33.9322,21.205 9.722,2.16 15.6317,1.178 21.9226,-2.945 z"
       id="path315"
       style="stroke-width:0.193463" />
  </g>
</svg>
